<svg xmlns="http://www.w3.org/2000/svg" width="54" height="24" viewBox="0 0 54 24" fill="none">
  <g filter="url(#filter0_d_1_2)">
    <path d="M2.14215 22.576C1.31373 22.5794 0.639414 21.9105 0.636029 21.0821L0.580872 7.58224C0.577487 6.75382 1.24631 6.07951 2.07473 6.07613C2.90315 6.07274 3.57746 6.74156 3.58085 7.56998L3.62988 19.5699L15.6298 19.5209C16.4582 19.5175 17.1325 20.1863 17.1359 21.0147C17.1393 21.8431 16.4705 22.5174 15.642 22.5208L2.14215 22.576ZM52.5 3.5C47.5294 3.5 40.9482 2.55648 32.5983 4.41545C24.3376 6.25457 14.3722 10.8695 3.201 22.1323L1.07103 20.0197C12.6114 8.38466 23.078 3.46154 31.9464 1.48714C40.7256 -0.467419 47.9706 0.500002 52.5 0.500001L52.5 3.5Z" fill="white"/>
  </g>
  <defs>
    <filter id="filter0_d_1_2" x="0.580856" y="0.260593" width="52.9191" height="23.3154" filterUnits="userSpaceOnUse" color-interpolation-filters="sRGB">
      <feFlood flood-opacity="0" result="BackgroundImageFix"/>
      <feColorMatrix in="SourceAlpha" type="matrix" values="0 0 0 0 0 0 0 0 0 0 0 0 0 0 0 0 0 0 127 0" result="hardAlpha"/>
      <feOffset dx="1" dy="1"/>
      <feComposite in2="hardAlpha" operator="out"/>
      <feColorMatrix type="matrix" values="0 0 0 0 0 0 0 0 0 0 0 0 0 0 0 0 0 0 1 0"/>
      <feBlend mode="normal" in2="BackgroundImageFix" result="effect1_dropShadow_1_2"/>
      <feBlend mode="normal" in="SourceGraphic" in2="effect1_dropShadow_1_2" result="shape"/>
    </filter>
  </defs>
</svg>