<?xml version="1.0" standalone="no"?>
<!DOCTYPE svg PUBLIC "-//W3C//DTD SVG 20010904//EN"
 "http://www.w3.org/TR/2001/REC-SVG-20010904/DTD/svg10.dtd">
<svg version="1.0" xmlns="http://www.w3.org/2000/svg"
 width="791.000000pt" height="791.000000pt" viewBox="0 0 791.000000 791.000000"
 preserveAspectRatio="xMidYMid meet">
<metadata>
Created by potrace 1.14, written by Peter Selinger 2001-2017
</metadata>
<g transform="translate(0.000000,791.000000) scale(0.100000,-0.100000)"
fill="#000000" stroke="none">
<path d="M3630 7718 c0 -9 -6 -19 -12 -21 -7 -3 -8 -6 -3 -6 6 0 17 4 25 9 12
7 12 12 2 22 -9 9 -12 9 -12 -4z"/>
<path d="M3448 7693 c6 -2 18 -2 25 0 6 3 1 5 -13 5 -14 0 -19 -2 -12 -5z"/>
<path d="M3500 7680 c8 -5 22 -9 30 -9 10 0 8 3 -5 9 -27 12 -43 12 -25 0z"/>
<path d="M3550 7670 c0 -5 7 -7 15 -4 8 4 15 8 15 10 0 2 -7 4 -15 4 -8 0 -15
-4 -15 -10z"/>
<path d="M4332 7650 c0 -19 2 -27 5 -17 2 9 2 25 0 35 -3 9 -5 1 -5 -18z"/>
<path d="M3533 7623 c-18 -6 -16 -23 1 -23 17 0 30 16 19 23 -5 2 -14 2 -20 0z"/>
<path d="M3475 7610 c-3 -5 -1 -10 4 -10 6 0 11 5 11 10 0 6 -2 10 -4 10 -3 0
-8 -4 -11 -10z"/>
<path d="M3345 7561 c-3 -5 0 -13 6 -17 7 -4 9 -3 5 4 -3 6 2 13 11 15 16 4
16 5 1 6 -9 0 -19 -3 -23 -8z"/>
<path d="M3536 7550 c7 -7 23 -13 37 -13 14 -1 23 -5 21 -9 -4 -6 48 -48 60
-48 14 0 -8 30 -23 31 -9 1 -5 4 9 8 24 7 24 8 -10 18 -64 21 -106 27 -94 13z"/>
<path d="M3741 7534 c0 -11 3 -14 6 -6 3 7 2 16 -1 19 -3 4 -6 -2 -5 -13z"/>
<path d="M4100 7546 c0 -2 7 -7 16 -10 8 -3 12 -2 9 4 -6 10 -25 14 -25 6z"/>
<path d="M3425 7520 c-19 -8 -19 -9 3 -9 21 -1 33 -21 12 -21 -5 0 -10 -5 -10
-10 0 -6 8 -5 19 2 11 6 19 20 18 30 -1 20 -11 21 -42 8z"/>
<path d="M3940 7490 c0 -5 5 -10 11 -10 5 0 7 5 4 10 -3 6 -8 10 -11 10 -2 0
-4 -4 -4 -10z"/>
<path d="M4100 7496 c0 -2 7 -7 16 -10 8 -3 12 -2 9 4 -6 10 -25 14 -25 6z"/>
<path d="M3317 7469 c7 -7 15 -10 18 -7 3 3 -2 9 -12 12 -14 6 -15 5 -6 -5z"/>
<path d="M3670 7466 c0 -8 5 -18 10 -21 6 -3 10 1 10 9 0 8 -4 18 -10 21 -5 3
-10 -1 -10 -9z"/>
<path d="M4001 7444 c0 -11 3 -14 6 -6 3 7 2 16 -1 19 -3 4 -6 -2 -5 -13z"/>
<path d="M4200 7450 c-8 -5 -12 -12 -9 -15 4 -3 12 1 19 10 14 17 11 19 -10 5z"/>
<path d="M3693 7390 c0 -25 2 -35 4 -22 2 12 2 32 0 45 -2 12 -4 2 -4 -23z"/>
<path d="M4122 7418 c-15 -15 -16 -38 -2 -38 6 0 10 9 10 19 0 11 8 22 18 24
13 4 13 5 2 6 -9 0 -21 -4 -28 -11z"/>
<path d="M2613 7380 c-35 -16 -63 -34 -63 -40 0 -6 9 -5 23 4 47 30 176 28
170 -3 -2 -6 4 -11 13 -11 9 0 22 -7 28 -15 7 -10 16 -12 26 -5 12 7 11 10 -5
16 -11 5 -27 16 -35 26 -8 10 -35 23 -60 28 l-45 9 53 -3 c31 -2 60 -10 71
-20 12 -11 21 -14 26 -7 3 6 -1 11 -10 11 -9 0 -14 4 -11 9 6 9 -68 31 -101
31 -10 -1 -46 -14 -80 -30z"/>
<path d="M4365 7400 c3 -5 8 -10 11 -10 2 0 4 5 4 10 0 6 -5 10 -11 10 -5 0
-7 -4 -4 -10z"/>
<path d="M3100 7389 c-87 -17 -95 -20 -79 -30 7 -5 30 -9 49 -10 29 0 31 -2
15 -9 -15 -6 -6 -9 32 -9 28 -1 64 -6 79 -11 52 -20 34 -2 -28 28 l-63 30 38
1 c23 1 36 5 32 11 -7 11 -12 11 -75 -1z"/>
<path d="M4435 7374 c-18 -16 -23 -24 -12 -20 10 3 22 6 27 6 4 0 10 9 13 20
3 11 4 20 4 20 -1 -1 -15 -12 -32 -26z"/>
<path d="M3230 7382 c0 -8 59 -36 65 -31 1 2 -12 12 -31 21 -19 10 -34 14 -34
10z"/>
<path d="M4236 7381 c-4 -5 0 -11 6 -14 7 -2 -2 -7 -19 -11 -18 -4 -35 -12
-38 -17 -4 -5 -10 -9 -16 -9 -18 0 -9 15 19 32 25 16 25 17 5 15 -12 -1 -25
-7 -27 -14 -4 -9 -26 -13 -70 -13 -36 0 -67 -3 -69 -7 -3 -5 24 -7 59 -6 49 2
64 -1 64 -12 0 -8 -5 -17 -11 -20 -6 -4 -8 -13 -5 -20 3 -9 -3 -12 -25 -8 -23
3 -29 0 -29 -14 -1 -16 -2 -16 -13 -2 -33 44 -172 47 -207 4 -9 -11 -5 -12 23
-5 19 4 40 10 46 14 6 4 11 2 11 -4 0 -6 6 -10 13 -9 22 5 75 -12 87 -27 7 -7
16 -11 21 -8 5 3 9 1 9 -5 0 -18 -20 -23 -26 -7 -3 9 -11 13 -16 10 -6 -4 -13
-2 -17 4 -3 6 -19 14 -34 17 -21 6 -27 4 -27 -9 0 -9 5 -16 12 -16 9 0 9 -3 0
-12 -18 -18 -15 -34 9 -44 20 -9 21 -11 5 -27 -12 -11 -13 -17 -5 -17 10 0 10
-3 2 -11 -7 -7 -17 -8 -25 -3 -7 5 -45 10 -85 10 -57 1 -77 6 -99 23 -19 15
-22 21 -10 21 9 0 16 -5 16 -12 0 -9 3 -9 12 0 17 17 26 15 31 -5 4 -14 5 -13
6 4 1 27 13 35 31 21 12 -8 12 -9 -2 -4 -19 6 -25 -9 -8 -19 6 -4 8 -10 5 -15
-3 -4 6 -7 20 -6 22 1 23 3 9 13 -14 10 -14 13 5 25 27 16 27 28 0 28 -18 0
-19 3 -9 14 6 8 21 16 32 18 25 4 37 28 13 28 -8 0 -34 -9 -56 -21 -32 -16
-44 -18 -55 -8 -21 17 -42 4 -46 -28 l-3 -28 -18 30 -17 30 6 -28 c6 -27 5
-28 -14 -16 -27 17 -39 44 -46 99 -3 32 -12 51 -32 68 -34 30 -68 26 -71 -8
-1 -14 0 -18 3 -7 14 46 94 -8 94 -63 0 -34 1 -34 -37 -18 -45 18 -94 18 -91
-1 2 -9 15 -17 32 -18 16 -1 34 -7 40 -14 8 -8 0 -9 -34 -4 l-45 6 25 -21 25
-21 -32 4 c-23 2 -33 -1 -33 -10 0 -8 -12 -13 -29 -13 -25 0 -28 3 -24 23 5
21 5 21 -9 3 -8 -10 -19 -17 -24 -14 -5 2 -19 -6 -31 -19 -25 -26 -19 -31 9
-6 10 9 18 11 18 6 0 -6 -7 -16 -16 -24 -8 -7 -24 -30 -35 -51 -11 -21 -29
-48 -39 -58 -11 -11 -20 -24 -20 -30 0 -5 -4 -10 -10 -10 -5 0 -7 7 -3 15 7
21 -20 15 -29 -5 -5 -11 -7 -9 -7 7 -1 12 5 28 12 35 24 23 36 54 28 67 -6 10
-10 9 -15 -4 -6 -15 -10 -14 -33 10 -63 62 -177 103 -253 90 -35 -6 -39 -5
-34 10 5 11 -3 8 -21 -9 -15 -14 -32 -26 -37 -26 -11 0 0 59 14 78 7 7 7 12 1
12 -6 0 -15 -10 -21 -22 -10 -22 -11 -22 -11 5 -1 33 -21 27 -21 -7 0 -12 -6
-28 -12 -35 -11 -11 -8 -12 12 -7 14 3 19 3 12 0 -6 -3 -9 -10 -6 -15 5 -9
-22 -6 -71 9 -29 8 -95 9 -95 0 0 -4 -8 -5 -17 -4 -10 2 -27 0 -38 -4 -15 -5
-10 -8 23 -11 23 -3 42 0 42 5 0 10 67 1 118 -15 17 -6 32 -15 32 -20 0 -6 -4
-8 -9 -4 -5 3 -12 1 -16 -5 -3 -5 0 -10 7 -11 20 -1 -114 -31 -139 -31 -12 0
-21 -5 -20 -11 1 -6 -16 -21 -38 -33 -45 -26 -69 -32 -39 -9 10 8 15 14 9 15
-5 0 -28 -16 -50 -35 -22 -19 -35 -34 -29 -35 6 0 17 7 24 15 24 29 31 15 8
-14 -26 -33 -38 -38 -38 -16 0 8 -5 15 -11 15 -5 0 -7 5 -4 10 10 17 -15 81
-28 73 -7 -4 -15 -8 -19 -8 -3 0 -10 -4 -15 -9 -5 -5 -3 -6 5 -2 22 13 13 -26
-17 -79 -58 -100 -147 -165 -281 -205 -41 -13 -79 -27 -85 -32 -7 -7 -1 -8 15
-3 14 5 55 16 92 25 117 31 219 105 277 203 13 20 27 37 32 37 12 0 11 -32 -1
-67 -9 -26 -9 -27 5 -9 22 29 18 4 -10 -59 -22 -51 -25 -71 -24 -177 0 -34 7
-36 19 -5 8 21 9 21 9 2 1 -12 -5 -27 -11 -34 -10 -11 -10 -13 0 -7 7 5 12 1
12 -9 0 -9 -4 -13 -10 -10 -16 10 -12 0 21 -63 22 -44 42 -65 72 -83 30 -17
37 -24 25 -27 -10 -2 -18 -8 -18 -13 0 -5 -5 -9 -11 -9 -8 0 -8 4 0 14 13 16
-1 32 -18 21 -6 -3 -22 15 -37 40 -14 25 -29 44 -32 41 -3 -3 1 -12 8 -21 8
-9 8 -15 2 -15 -13 0 -26 36 -17 50 3 5 -1 20 -9 32 -16 22 -16 22 -17 -12 -1
-19 -4 -46 -8 -60 -7 -24 -8 -23 -15 10 -4 19 -10 53 -14 75 l-7 40 -20 -21
c-11 -12 -32 -24 -48 -28 -15 -4 -37 -16 -49 -28 -18 -18 -20 -19 -14 -3 4 11
2 22 -6 27 -10 6 -10 8 0 8 7 0 29 12 50 28 l38 27 -48 -1 c-39 0 -54 -6 -78
-29 -16 -15 -27 -32 -24 -36 3 -5 0 -19 -7 -31 -21 -38 -29 -91 -17 -106 9
-10 6 -14 -10 -19 -27 -7 -28 -18 -2 -36 20 -14 20 -15 -11 -82 -20 -44 -31
-86 -32 -121 -1 -30 -6 -54 -11 -54 -4 0 -5 -11 -2 -25 4 -16 2 -25 -5 -25 -7
0 -9 -3 -6 -7 4 -3 1 -13 -6 -21 -9 -13 -9 -14 1 -8 14 9 16 -8 2 -34 -10 -19
-15 -68 -9 -85 2 -5 0 -10 -6 -10 -5 0 -9 3 -7 8 4 12 -5 8 -19 -10 -12 -14
-12 -16 0 -8 11 6 13 4 9 -7 -5 -11 -1 -14 16 -11 25 5 61 -27 39 -34 -19 -7
-16 -23 5 -23 14 0 12 -4 -8 -20 -23 -18 -18 -26 13 -21 16 2 6 -19 -19 -38
-15 -12 -23 -21 -18 -21 5 -1 0 -9 -12 -18 -11 -10 -27 -38 -35 -62 -14 -44
-13 -46 11 -68 17 -16 26 -20 29 -11 2 7 8 18 13 24 5 5 16 19 24 30 15 19 15
19 8 -5 -4 -14 -8 -33 -8 -42 0 -9 -3 -15 -6 -13 -3 1 -11 -3 -18 -11 -12 -13
-8 -18 11 -15 13 2 7 -26 -8 -39 -8 -7 -15 -17 -15 -23 0 -6 6 -3 13 7 7 9 22
18 34 18 11 1 19 7 17 13 -3 6 6 23 20 36 14 14 30 45 35 70 14 60 14 64 -6
48 -16 -13 -17 -12 -5 3 15 19 46 13 38 -8 -8 -20 4 -17 20 4 8 9 14 12 14 5
0 -7 -11 -24 -24 -38 -14 -15 -22 -33 -19 -41 3 -8 0 -14 -6 -14 -6 0 -11 -7
-11 -15 0 -8 -4 -15 -9 -15 -6 0 -10 -8 -10 -17 0 -10 -2 -47 -5 -83 -2 -36
-3 -60 0 -53 3 7 21 29 40 50 41 44 66 91 54 98 -5 3 -16 -5 -24 -17 -10 -13
-16 -17 -16 -9 0 8 6 22 14 30 7 9 18 30 23 46 6 17 15 29 21 28 6 -2 9 4 6
12 -4 8 -10 12 -15 9 -5 -3 -6 1 -3 9 2 7 -4 35 -16 61 -11 26 -20 68 -20 92
0 37 -4 46 -23 54 -20 8 -21 9 -2 9 17 1 22 12 32 59 13 73 48 152 65 152 9 0
9 -3 2 -8 -6 -4 -14 -18 -17 -32 -3 -14 -12 -50 -21 -80 -9 -30 -16 -86 -16
-125 0 -87 23 -142 84 -199 23 -23 45 -48 48 -56 3 -8 8 -13 11 -10 3 3 -3 23
-13 44 -14 31 -15 44 -6 58 11 18 11 18 14 -2 2 -11 10 -20 18 -20 9 0 12 -5
8 -12 -4 -6 -3 -8 4 -4 5 3 12 0 15 -6 2 -7 3 7 3 31 -1 31 3 45 14 48 12 4
12 3 2 -5 -12 -8 -12 -13 0 -33 7 -13 19 -28 26 -34 7 -6 15 -19 17 -30 2 -11
4 -22 4 -24 1 -2 11 8 22 23 20 26 21 29 6 64 -17 40 -37 109 -37 130 0 23 18
3 25 -28 3 -16 15 -40 26 -54 11 -14 19 -31 18 -38 -4 -32 3 -41 13 -18 11 24
11 24 18 -15 10 -58 35 -111 43 -91 4 9 2 16 -3 16 -6 0 -10 10 -10 22 l0 22
16 -22 c20 -28 39 -29 23 -1 -6 12 -9 32 -6 45 2 13 1 21 -3 19 -14 -8 -22 28
-26 113 -3 67 0 92 15 125 18 40 64 97 78 97 4 0 -3 -10 -15 -23 -23 -24 -30
-43 -12 -32 13 8 13 -18 0 -31 -11 -11 -13 -20 -32 -116 -10 -52 -9 -65 12
-130 14 -40 29 -76 35 -80 6 -5 5 -8 -3 -8 -7 0 -11 -4 -7 -10 3 -5 12 -7 20
-3 9 3 15 -1 15 -11 0 -9 -5 -16 -11 -16 -8 0 -8 -5 1 -15 7 -8 19 -15 26 -15
7 0 11 -6 8 -14 -4 -11 0 -13 14 -9 11 2 23 0 26 -6 13 -21 22 -11 22 23 -1
25 -6 36 -19 40 -16 4 -18 0 -12 -22 5 -19 -3 -12 -28 25 -38 57 -61 113 -46
113 5 0 9 -4 9 -10 0 -5 7 -10 16 -10 10 0 14 6 11 14 -4 9 0 13 11 12 9 -2
18 -12 18 -22 1 -10 2 -25 3 -33 1 -8 4 -11 9 -7 7 8 8 13 11 42 1 10 7 14 16
10 8 -3 15 -1 15 4 0 6 5 10 10 10 12 0 13 -37 1 -44 -4 -3 -9 -43 -10 -88 -1
-45 0 -80 4 -77 3 3 6 29 6 56 2 65 19 95 19 34 0 -31 7 -54 25 -77 14 -18 25
-39 25 -48 0 -8 5 -18 10 -21 6 -3 10 -1 10 5 0 6 5 8 10 5 6 -3 10 -18 10
-32 0 -20 3 -23 13 -14 8 6 18 7 22 3 5 -4 5 1 2 11 -7 19 17 25 28 7 4 -6 10
-8 15 -5 10 6 65 -19 90 -40 11 -10 27 -11 57 -6 28 5 44 4 46 -2 2 -6 36 -12
78 -13 41 0 94 -7 118 -13 23 -7 49 -10 56 -7 16 6 87 -29 78 -38 -4 -3 12 -6
35 -6 40 0 62 -19 25 -21 -14 0 -14 -2 3 -9 26 -10 40 -30 22 -30 -7 -1 -1 -8
15 -16 18 -10 27 -23 27 -39 0 -13 4 -26 8 -29 11 -7 12 -196 1 -217 -6 -12
-40 -21 -119 -34 -62 -9 -112 -15 -113 -13 -1 2 -24 27 -52 56 -27 28 -44 52
-38 52 6 0 19 -7 27 -16 15 -14 16 -13 16 11 0 24 3 26 30 20 25 -5 30 -3 30
12 0 15 2 16 10 3 6 -9 10 -10 10 -3 0 6 -4 15 -10 18 -5 3 -10 11 -10 16 0 6
5 7 11 3 7 -4 6 3 -2 17 -7 13 -12 27 -11 32 1 4 -9 13 -23 19 -14 6 -25 14
-25 18 0 4 -9 10 -20 13 -11 3 -20 1 -20 -4 0 -5 -27 -7 -62 -3 -35 3 -101 6
-148 6 -47 0 -92 6 -102 11 -13 8 -26 7 -52 -6 -21 -10 -38 -13 -41 -7 -4 6
-13 4 -22 -5 -12 -12 -18 -13 -29 -4 -9 7 -14 8 -14 1 0 -6 -26 -20 -57 -31
-52 -18 -54 -20 -18 -15 22 4 49 12 60 18 23 14 84 20 70 8 -6 -5 -30 -15 -55
-22 -41 -12 -43 -14 -20 -20 23 -6 21 -8 -20 -20 -25 -7 -61 -13 -82 -14 -20
0 -34 -5 -31 -9 3 -5 -4 -4 -15 2 -14 7 -23 8 -27 1 -3 -5 0 -10 7 -10 7 0
-13 -15 -45 -32 -72 -39 -144 -117 -159 -172 l-11 -41 -83 0 -82 0 -6 -29 c-3
-16 -6 -40 -6 -53 0 -23 3 -24 58 -23 94 3 89 5 97 -52 28 -222 147 -404 319
-488 110 -55 210 -70 317 -47 151 31 250 101 333 238 21 35 35 55 30 44 -30
-76 -63 -185 -63 -208 -1 -16 -5 -26 -11 -22 -5 3 -10 0 -10 -8 0 -8 -7 -18
-16 -21 -8 -3 -12 -10 -9 -16 12 -19 30 -10 51 28 20 34 26 54 39 120 8 42 16
66 60 162 23 52 54 131 69 176 29 88 57 124 101 127 l28 2 4 -85 c2 -47 5
-152 8 -235 2 -82 4 -157 5 -165 1 -8 -4 -71 -9 -140 -8 -94 -8 -132 1 -153
12 -31 -1 -50 -29 -40 -7 3 -21 2 -30 -2 -16 -6 -15 -8 5 -16 19 -7 23 -16 21
-41 -1 -18 2 -41 6 -51 5 -12 -2 -41 -18 -80 -14 -34 -29 -78 -32 -97 l-6 -36
47 -2 c26 -1 52 -6 58 -12 12 -12 6 -12 -76 -10 -47 1 -58 -2 -58 -15 0 -8 -7
-18 -15 -22 -10 -3 -15 -16 -14 -32 4 -53 0 -65 -16 -51 -8 7 -15 19 -15 26 0
8 -10 14 -22 14 -21 0 -21 0 2 -20 13 -11 20 -23 17 -26 -3 -4 -13 1 -22 10
-9 9 -19 16 -21 16 -15 0 -63 -32 -68 -45 -3 -9 -9 -14 -14 -11 -4 2 -14 1
-22 -4 -10 -6 -21 -4 -32 7 -21 19 -52 12 -91 -20 -27 -23 -54 -87 -36 -87 5
0 9 4 9 8 0 5 10 8 23 7 12 -1 31 4 42 11 11 8 30 14 43 14 13 0 39 12 57 26
19 14 39 23 45 19 5 -3 10 -1 10 6 0 8 4 8 15 -1 12 -10 13 -15 3 -21 -8 -5
-4 -11 15 -20 15 -7 27 -20 27 -30 0 -9 7 -20 16 -23 22 -8 26 -8 19 3 -3 5 0
13 6 16 6 4 13 -2 16 -14 3 -12 10 -21 15 -21 5 0 8 -12 6 -27 -2 -16 -7 -27
-13 -25 -5 2 -9 12 -7 24 5 30 -15 13 -21 -19 -3 -16 1 -32 10 -42 14 -14 13
-16 -11 -24 -14 -5 -26 -14 -26 -20 0 -12 54 -42 75 -42 6 0 16 -4 24 -9 7 -5
37 -8 67 -8 56 0 81 -15 70 -43 -3 -9 0 -15 9 -15 18 0 23 -27 13 -70 -5 -19
-10 -60 -13 -90 -3 -36 -11 -59 -22 -67 -16 -12 -15 -13 3 -13 15 0 16 -2 5
-9 -8 -5 -15 -22 -17 -38 -1 -15 -5 -54 -8 -86 -4 -47 -10 -62 -30 -78 -15
-11 -26 -27 -26 -35 0 -8 -7 -14 -15 -14 -8 0 -15 -4 -15 -10 0 -5 -7 -7 -15
-4 -8 4 -15 2 -15 -4 0 -6 6 -13 13 -15 6 -3 1 -6 -13 -6 -17 -1 -21 -4 -12
-9 7 -5 -16 -7 -50 -6 -62 2 -63 2 -28 -11 19 -8 47 -14 63 -14 15 -1 27 -5
27 -9 0 -4 15 -8 33 -8 40 0 127 -41 127 -60 0 -9 11 -14 30 -14 51 0 53 -17
26 -195 -4 -22 -10 -54 -15 -70 -14 -52 -8 -199 9 -216 22 -23 58 -29 71 -13
9 11 8 14 -2 14 -11 0 -11 2 0 12 11 10 14 10 18 1 3 -7 14 -13 25 -13 13 0
18 5 15 14 -4 10 0 12 16 8 12 -3 16 -7 9 -10 -6 -2 -12 -8 -12 -14 0 -6 7 -8
15 -4 8 3 19 -2 24 -12 10 -16 10 -15 11 2 0 19 0 19 21 0 12 -10 30 -18 40
-16 14 2 17 -1 13 -12 -8 -20 -2 -20 44 1 20 9 42 15 49 14 6 -1 17 15 23 34
8 23 17 35 25 31 19 -7 27 5 14 21 -12 13 -2 18 30 14 7 -2 11 2 8 6 -3 5 15
22 41 38 26 16 50 34 54 39 4 6 14 3 27 -8 19 -18 20 -17 26 18 4 20 11 36 16
36 5 0 6 -15 3 -32 -4 -25 -3 -29 5 -18 15 21 14 10 -4 -40 -18 -52 -19 -83
-2 -77 6 2 12 16 11 30 -1 15 3 27 8 27 6 0 8 -7 4 -15 -7 -18 5 -20 23 -2 10
10 15 8 27 -7 8 -11 14 -15 14 -9 0 7 -4 15 -10 18 -5 3 -10 12 -10 20 0 11 7
11 45 -2 49 -16 73 -38 31 -27 -33 8 -35 -11 -4 -37 11 -11 17 -19 13 -19 -5
0 -19 9 -30 20 l-22 21 -6 -38 c-4 -24 -2 -40 6 -45 9 -5 7 -8 -4 -8 -9 0 -26
14 -39 30 -24 32 -46 41 -36 15 3 -8 3 -22 0 -30 -6 -14 -8 -13 -20 2 -11 16
-13 16 -14 2 0 -9 9 -24 20 -34 21 -19 26 -35 11 -35 -5 0 -13 9 -16 20 -8 26
-30 25 -49 -2 -14 -20 -14 -24 0 -39 12 -13 12 -19 3 -25 -7 -4 -10 -3 -6 3 4
6 0 14 -9 17 -23 9 -24 8 -24 -19 0 -14 -8 -29 -21 -36 -14 -7 -19 -17 -16
-30 3 -10 0 -17 -7 -16 -6 1 -10 -4 -8 -11 3 -15 -23 -44 -32 -35 -3 4 -6 1
-6 -5 0 -12 24 -38 42 -45 7 -2 9 -8 5 -13 -4 -5 -11 -4 -15 1 -4 6 -15 16
-24 23 -14 12 -19 10 -31 -14 -13 -25 -12 -31 6 -63 l20 -36 -25 28 c-31 33
-38 34 -38 5 0 -19 -2 -20 -10 -8 -8 13 -10 12 -10 -2 0 -10 4 -18 8 -18 4 0
8 -9 8 -20 0 -24 -21 -27 -30 -3 -5 13 -9 14 -19 4 -9 -10 -8 -15 7 -26 10 -8
16 -20 13 -27 -4 -10 -6 -10 -6 0 -2 21 -30 13 -47 -13 -16 -24 -16 -27 2 -40
10 -8 15 -15 10 -15 -4 0 2 -9 15 -20 13 -10 20 -19 15 -20 -5 0 -20 12 -33
26 -19 21 -26 24 -38 14 -8 -7 -15 -22 -15 -34 0 -13 -3 -17 -8 -9 -5 8 -13 9
-22 3 -12 -8 -13 -10 -1 -10 12 0 12 -3 -1 -17 -8 -10 -18 -23 -21 -29 -8 -13
51 -81 65 -76 5 1 7 -2 3 -8 -3 -5 -2 -10 3 -10 5 0 9 -6 9 -14 0 -12 -5 -11
-23 2 -13 9 -24 20 -24 23 0 9 -48 59 -56 59 -3 0 -3 -11 0 -25 5 -18 3 -23
-8 -19 -8 3 -17 1 -21 -5 -3 -6 1 -11 11 -11 10 0 14 -3 11 -7 -4 -3 -2 -12 4
-20 9 -10 8 -13 -5 -13 -9 0 -16 7 -16 15 0 26 -37 17 -44 -10 -4 -14 -13 -25
-22 -25 -8 0 -13 -4 -10 -9 3 -5 -1 -14 -9 -21 -12 -10 -16 -8 -24 13 -5 13
-35 48 -65 77 -31 29 -56 59 -56 66 0 15 -50 44 -75 44 -9 0 -18 7 -21 15 -4
8 -14 15 -23 15 -20 0 -71 50 -71 68 0 7 -13 38 -29 70 -34 68 -177 507 -257
786 -31 110 -65 219 -75 243 -10 25 -19 51 -19 58 0 8 -5 26 -12 42 -6 15 -12
33 -12 38 -7 55 -22 78 -83 127 -106 86 -95 81 -133 53 -19 -14 -29 -25 -24
-25 6 0 15 5 22 12 7 7 12 9 12 5 0 -20 -194 -132 -211 -122 -5 4 -8 3 -7 -2
1 -4 -34 -44 -78 -88 -44 -44 -102 -109 -129 -145 -27 -36 -52 -67 -55 -70
-20 -18 -90 -110 -90 -118 0 -6 -7 -13 -16 -16 -10 -4 -13 -13 -9 -25 3 -11 1
-22 -4 -26 -7 -3 -8 0 -5 9 3 9 1 16 -5 16 -6 0 -11 -3 -11 -7 0 -5 -25 -35
-56 -68 -30 -33 -69 -81 -86 -108 -16 -26 -34 -44 -40 -40 -7 3 -8 1 -4 -6 6
-10 -88 -141 -101 -141 -5 0 6 20 26 45 8 11 -1 5 -22 -14 -40 -37 -100 -153
-91 -175 7 -18 -14 -58 -26 -51 -6 3 -7 0 -5 -8 3 -7 -2 -31 -11 -53 -14 -33
-18 -36 -24 -20 -5 16 -9 12 -23 -22 -9 -24 -17 -49 -17 -56 0 -8 -14 -45 -32
-83 -43 -92 -44 -93 -14 -51 14 20 26 40 26 44 0 3 15 27 33 53 31 42 107 212
107 238 0 23 42 62 95 87 62 29 65 30 65 16 0 -5 -18 -14 -39 -21 -21 -6 -52
-22 -67 -35 -18 -15 -22 -22 -11 -18 16 6 17 4 8 -12 -26 -49 -79 -163 -91
-197 -6 -22 -31 -62 -54 -90 -54 -67 -108 -156 -101 -167 3 -4 -2 -11 -11 -14
-8 -3 -13 -10 -9 -16 3 -5 -4 -23 -16 -39 -14 -19 -22 -43 -21 -66 1 -36 -9
-43 -37 -26 -9 6 -25 2 -45 -10 -17 -10 -50 -27 -73 -38 -24 -11 -43 -25 -43
-30 0 -6 -9 -11 -21 -11 -31 0 -77 -31 -88 -59 -24 -60 -31 -226 -10 -219 13
4 69 143 69 170 0 22 16 24 24 2 3 -8 10 -12 16 -9 13 8 13 -11 -1 -36 -6 -11
-11 -72 -12 -135 l-2 -114 30 0 30 -1 -27 -20 c-19 -14 -34 -41 -48 -86 -11
-36 -17 -69 -14 -74 7 -13 -15 -109 -26 -109 -4 0 -8 -6 -7 -13 1 -37 -4 -46
-20 -40 -10 3 -15 3 -11 -2 4 -4 0 -21 -8 -37 -9 -17 -13 -41 -10 -54 5 -20
13 -24 42 -24 49 0 96 22 149 71 25 23 48 39 51 36 8 -8 -76 -97 -92 -97 -8 0
-14 -4 -14 -10 0 -5 -7 -10 -15 -10 -19 0 -19 -14 1 -34 12 -12 37 -16 109
-16 l93 0 6 58 c11 101 2 214 -21 263 -37 78 -37 82 8 135 22 27 59 87 81 134
21 46 60 116 85 155 60 91 300 330 430 428 104 79 118 87 111 65 -3 -7 -9 -13
-14 -13 -12 0 -64 -53 -64 -65 0 -6 -4 -10 -9 -10 -5 0 -27 -18 -49 -40 -22
-22 -43 -40 -47 -40 -7 0 -52 -46 -105 -109 -19 -23 -56 -83 -82 -134 -26 -51
-48 -85 -48 -77 0 8 -8 -1 -17 -20 -43 -93 -84 -175 -94 -187 -6 -7 -9 -13 -6
-13 3 0 -4 -24 -15 -52 -32 -87 -63 -232 -60 -291 0 -15 -3 -25 -7 -22 -5 2
-11 -27 -15 -64 -3 -38 -9 -76 -12 -85 -6 -14 45 -16 526 -16 504 0 532 1 519
17 -13 17 -13 17 13 0 41 -26 57 -21 25 8 -40 38 -33 42 8 6 l36 -31 135 0
136 0 -3 113 c-3 118 5 182 26 207 13 16 19 37 41 150 20 103 21 105 52 120
23 11 164 20 304 20 19 0 29 7 34 23 5 12 7 25 6 30 -1 4 3 7 9 7 6 0 3 7 -5
16 -9 8 -16 21 -16 27 0 7 5 4 11 -5 5 -10 14 -18 19 -18 18 0 50 34 50 52 0
10 6 18 14 18 8 0 21 2 28 5 9 4 19 -5 27 -21 6 -15 15 -24 18 -20 4 3 1 12
-5 18 -17 17 -15 38 3 38 8 0 15 -4 15 -10 0 -5 7 -10 15 -10 9 0 12 6 9 15
-4 9 0 15 9 15 8 0 18 -10 22 -22 l8 -23 4 23 c6 28 26 28 46 -1 l15 -22 -3
27 c-2 16 1 30 6 34 5 3 9 -2 9 -10 0 -9 5 -16 10 -16 6 0 10 7 10 15 0 18 16
20 23 3 3 -9 10 -7 21 7 14 17 17 18 27 5 8 -11 12 -12 16 -2 2 6 11 12 19 12
8 0 14 5 14 11 0 5 5 7 10 4 9 -5 15 15 11 38 -2 12 17 8 22 -5 2 -7 2 -3 1 9
-5 26 11 40 20 18 7 -20 28 -19 24 1 -2 10 3 19 10 21 6 3 12 0 12 -5 0 -13
28 -42 41 -42 6 0 3 7 -5 16 -9 8 -16 20 -16 25 0 15 22 10 36 -8 12 -16 15
-16 23 -3 7 10 7 16 1 18 -14 5 -2 22 16 22 8 0 14 -7 14 -15 0 -7 6 -18 13
-22 8 -4 24 -22 37 -40 13 -18 27 -30 31 -27 4 2 10 0 14 -6 12 -19 -31 -10
-54 11 -12 12 -25 18 -29 15 -3 -4 8 -20 25 -36 32 -30 50 -66 39 -77 -3 -4
-6 -1 -6 6 0 16 -26 42 -34 34 -3 -4 -6 1 -6 11 0 9 -4 14 -10 11 -6 -3 -10
-1 -10 4 0 6 -7 11 -16 11 -8 0 -12 5 -9 10 3 6 1 10 -5 10 -6 0 -8 5 -5 10 3
5 2 10 -4 10 -25 0 -16 -20 29 -65 41 -40 47 -51 39 -67 -6 -11 -8 -26 -5 -34
3 -8 1 -14 -4 -14 -6 0 -10 5 -10 10 0 6 -7 10 -15 10 -13 0 -14 3 -2 22 13
22 10 27 -55 89 -38 36 -71 63 -73 58 -3 -4 2 -10 11 -13 9 -4 14 -9 11 -12
-3 -3 19 -30 50 -60 58 -55 64 -82 12 -52 -38 22 -37 14 3 -23 29 -26 30 -29
11 -29 -12 0 -23 6 -26 13 -3 9 -7 9 -18 0 -15 -12 -87 -15 -104 -5 -5 4 2 9
17 12 21 4 25 8 18 20 -7 12 -12 11 -30 -5 -20 -18 -21 -18 -35 1 -8 10 -15
14 -15 8 0 -5 9 -20 20 -31 17 -19 17 -22 3 -27 -9 -4 -20 -2 -23 5 -6 8 -9 8
-14 0 -4 -6 -14 -11 -21 -11 -8 0 -32 -19 -53 -41 l-39 -42 -22 37 c-27 43
-38 48 -16 6 8 -16 15 -31 15 -35 0 -13 -23 -3 -41 17 l-20 23 11 -22 c14 -30
-5 -31 -37 -1 -13 12 -23 16 -23 10 0 -7 4 -12 9 -12 12 0 7 -33 -6 -37 -6 -2
-13 5 -16 17 -3 11 -10 20 -15 20 -6 0 -8 -9 -5 -20 7 -26 -2 -25 -28 1 -11
11 -24 18 -27 14 -4 -3 0 -10 8 -15 12 -7 12 -12 2 -22 -10 -10 -14 -10 -21 0
-6 10 -14 10 -34 3 -16 -6 -27 -7 -27 -1 0 5 -12 8 -27 7 -27 -2 -113 -79
-113 -102 0 -5 -15 -25 -32 -44 -22 -22 -27 -32 -15 -28 10 4 16 3 14 -1 -2
-4 -21 -43 -41 -87 -21 -44 -46 -97 -57 -118 -10 -21 -19 -43 -19 -50 0 -7 -7
-25 -16 -42 -9 -16 -17 -40 -19 -53 -2 -21 1 -22 28 -16 25 5 29 4 24 -10 -5
-11 -1 -16 14 -16 16 0 19 4 14 20 -6 20 9 28 20 10 4 -7 12 -7 25 0 13 7 20
6 23 -3 3 -9 7 -9 18 -1 8 6 21 12 29 12 8 1 42 3 75 5 47 3 63 1 73 -12 7 -9
12 -11 11 -6 -3 24 2 34 15 29 8 -3 17 0 21 5 3 6 11 9 16 6 5 -3 19 3 31 14
22 21 44 29 33 12 -3 -5 -1 -12 4 -15 5 -3 12 2 16 12 6 15 8 15 25 -6 23 -27
33 -28 25 -2 -9 28 15 26 40 -2 10 -13 18 -25 16 -27 -5 -7 30 -23 36 -17 4 3
1 6 -5 6 -7 0 -12 6 -12 14 0 8 -8 17 -17 20 -24 10 -2 27 25 20 12 -4 19 -10
16 -15 -3 -5 0 -9 6 -9 7 0 10 7 7 15 -11 27 13 26 41 -2 15 -15 24 -24 20
-19 -11 13 -10 46 0 46 5 0 19 -11 32 -25 l23 -24 -26 -12 -26 -12 25 -20 c24
-19 25 -19 40 -1 14 17 15 17 10 2 -5 -17 10 -18 219 -18 195 0 225 2 225 15
0 9 7 18 15 21 8 3 17 14 20 25 15 47 205 366 316 531 32 48 69 115 83 150 37
99 60 140 182 323 114 172 282 382 302 378 6 -2 9 4 6 12 -4 8 -1 15 5 15 7 0
26 29 43 65 30 66 78 115 143 145 46 21 73 49 112 113 28 47 36 72 40 120 7
118 25 302 29 306 2 2 4 -3 4 -12 0 -10 4 -17 9 -17 5 0 12 -8 15 -18 2 -9 4
24 3 75 -1 50 1 89 6 86 4 -2 7 -13 7 -23 0 -10 6 -23 13 -27 19 -13 37 -71
23 -77 -7 -3 -7 -5 2 -5 15 -1 16 -33 0 -49 -9 -9 -7 -12 10 -12 19 0 21 4 17
33 -3 17 -2 26 1 19 5 -10 9 -10 20 -1 18 15 22 11 26 -26 2 -24 -1 -30 -17
-30 -33 0 -43 -13 -51 -60 -3 -25 -10 -45 -15 -45 -16 0 -9 -21 9 -28 18 -7
18 -8 0 -27 -18 -19 -19 -19 -12 -1 5 14 4 17 -5 12 -6 -4 -9 -16 -6 -25 3
-11 -3 -25 -16 -37 -38 -34 -43 -64 -16 -93 59 -66 60 -81 2 -30 -20 18 -39
29 -43 25 -3 -4 -6 -26 -6 -49 0 -49 -11 -60 -81 -81 -28 -9 -61 -27 -73 -40
-12 -14 -33 -28 -47 -32 -33 -8 -26 -32 27 -96 23 -28 34 -48 26 -48 -10 0 -9
-3 2 -10 13 -8 13 -10 -1 -10 -18 0 -32 -24 -21 -34 12 -12 10 -35 -4 -40 -10
-4 -12 -15 -7 -37 6 -29 4 -32 -15 -27 -26 7 -33 -2 -34 -42 -1 -26 -5 -30
-28 -30 -15 0 -33 -7 -40 -15 -17 -20 -5 -32 15 -15 18 15 20 -1 3 -18 -15
-15 -58 -16 -58 -2 0 6 25 40 55 75 47 56 92 132 82 141 -4 5 -99 -117 -113
-146 -8 -15 -23 -35 -34 -45 -15 -13 -17 -21 -9 -31 6 -7 8 -18 4 -24 -9 -14
8 -13 23 2 7 7 12 8 12 3 -1 -19 -25 -40 -50 -43 -28 -3 -47 -18 -36 -29 4 -4
11 -1 15 6 5 7 11 9 14 4 10 -16 -18 -40 -44 -39 -16 1 -32 -6 -38 -16 -13
-21 -1 -24 18 -5 11 10 13 9 7 -6 -3 -10 -6 -22 -6 -26 0 -3 -12 -8 -26 -9
-29 -2 -54 -18 -54 -35 0 -5 9 -2 20 8 15 14 20 15 20 4 0 -22 -15 -40 -30
-37 -8 2 -17 -11 -23 -28 -7 -24 -15 -31 -34 -31 -14 0 -32 -8 -41 -17 -9 -9
-11 -16 -5 -16 6 0 13 6 16 13 7 20 17 3 10 -21 -4 -17 -13 -22 -38 -22 -21 0
-35 -6 -39 -16 -5 -14 -4 -15 9 -4 20 16 26 10 18 -18 -3 -13 -13 -22 -24 -22
-17 0 -24 -19 -21 -51 1 -3 -13 -6 -30 -7 -17 0 -38 -9 -47 -18 -15 -17 -15
-17 2 -5 21 17 35 7 18 -13 -9 -11 -9 -15 1 -19 7 -3 2 -6 -12 -7 -14 -1 -31
-3 -39 -4 -8 0 -17 -8 -19 -16 -5 -13 -3 -13 11 -1 15 12 17 11 15 -13 -2 -20
-8 -26 -25 -26 -22 0 -27 -10 -26 -48 1 -6 -7 -12 -16 -12 -9 0 -21 -11 -28
-25 -6 -14 -7 -25 -2 -25 5 0 9 -4 9 -8 0 -4 -15 -6 -33 -4 -24 3 -37 -2 -48
-15 -13 -17 -13 -17 4 -4 22 17 34 7 17 -14 -8 -10 -9 -15 -1 -15 6 0 11 -5
11 -10 0 -6 -11 -8 -25 -4 -25 6 -30 -2 -27 -47 1 -12 -4 -15 -18 -12 -23 6
-46 -37 -26 -49 6 -5 2 -8 -10 -8 -12 0 -29 -11 -38 -25 -9 -14 -12 -25 -6
-25 5 0 10 -5 10 -10 0 -6 -6 -10 -12 -9 -7 1 -18 1 -24 0 -14 -1 -26 -41 -13
-41 5 0 9 -5 9 -10 0 -6 -6 -10 -12 -9 -7 1 -18 1 -24 0 -14 -1 -26 -41 -13
-41 5 0 9 -4 9 -10 0 -5 -11 -10 -24 -10 -25 0 -43 -30 -31 -50 3 -5 -1 -10
-9 -10 -8 0 -20 -9 -26 -20 -11 -20 -9 -20 142 -18 l153 3 50 67 c71 94 264
297 300 315 39 20 85 63 85 80 0 22 59 135 83 161 12 13 34 35 50 50 15 15 27
34 27 42 0 9 14 20 33 25 22 7 33 17 35 33 3 20 9 22 55 22 31 0 47 -4 39 -8
-7 -5 -10 -16 -6 -25 3 -9 10 -14 15 -11 5 3 9 0 9 -7 0 -7 2 -10 4 -8 3 3 1
21 -3 41 -7 28 -6 35 5 31 7 -2 10 -11 7 -19 -3 -8 0 -14 7 -14 7 0 9 -8 4
-22 -3 -13 -3 -20 1 -15 8 6 12 27 14 66 1 11 4 11 16 1 13 -11 13 -15 3 -21
-10 -7 -11 -9 0 -9 23 0 62 32 62 51 0 11 4 19 9 19 17 0 -2 -50 -21 -56 -17
-5 -19 -12 -14 -42 4 -27 3 -31 -4 -17 l-9 20 -1 -20 -1 -20 -10 20 c-8 17 -8
16 -4 -7 5 -27 -9 -48 -18 -26 -3 7 -3 -5 -1 -27 2 -22 1 -32 -2 -23 -8 27
-22 21 -16 -7 2 -13 1 -33 -3 -42 -7 -17 -8 -16 -15 2 -7 17 -9 16 -10 -10 -1
-28 -2 -29 -10 -8 -11 26 -30 31 -30 7 0 -8 5 -12 10 -9 6 3 10 2 10 -4 0 -5
3 -17 7 -26 5 -14 2 -16 -15 -10 -17 5 -22 2 -22 -12 0 -11 5 -24 12 -31 9 -9
7 -16 -7 -32 -10 -11 -15 -23 -12 -27 4 -3 7 -1 7 5 0 7 7 12 15 12 8 0 15 5
15 12 0 6 3 8 7 5 3 -4 -3 -16 -15 -27 -25 -23 -28 -40 -10 -58 9 -9 9 -12 0
-12 -7 0 -12 -14 -12 -35 0 -19 5 -35 11 -35 7 0 9 -11 6 -30 -4 -18 -2 -30 4
-30 6 0 7 5 3 12 -4 6 -3 8 3 5 6 -4 8 -18 5 -32 -4 -21 -2 -24 14 -18 16 6
17 5 6 -9 -8 -11 -11 -29 -7 -50 4 -18 2 -46 -4 -61 -11 -29 -3 -35 18 -14 11
10 11 8 1 -11 -6 -13 -9 -35 -6 -48 6 -23 11 -24 81 -24 74 0 88 7 62 28 -19
16 -16 160 3 172 8 5 11 12 7 16 -4 4 -2 13 4 21 9 10 8 13 -1 13 -9 0 -7 7 5
20 11 13 25 18 37 14 13 -4 16 -1 12 9 -3 8 0 18 7 23 7 4 10 3 5 -4 -3 -5 0
-12 6 -15 9 -3 5 -12 -12 -26 l-25 -22 24 7 c13 3 21 2 18 -2 -6 -11 18 -35
27 -27 3 4 6 -1 6 -10 0 -9 7 -17 15 -17 14 0 20 -22 17 -62 -1 -10 3 -18 8
-18 6 0 10 7 10 16 0 12 7 15 25 11 24 -4 24 -3 10 13 -8 9 -15 22 -15 28 0 6
-9 16 -20 22 -10 6 -17 16 -15 23 3 6 0 19 -5 27 -9 13 -11 13 -19 0 -6 -8
-13 -11 -17 -8 -3 4 1 14 10 23 19 20 20 26 3 20 -9 -4 -11 7 -9 40 3 38 2 44
-12 39 -12 -4 -16 0 -16 15 0 15 -6 21 -22 21 -23 1 -23 1 -3 16 14 11 16 18
8 21 -7 3 -13 11 -13 19 0 8 -4 14 -8 14 -9 0 2 137 14 172 4 13 7 31 5 42 -2
11 2 16 8 11 6 -3 14 1 17 9 8 22 -4 68 -16 61 -6 -3 -10 5 -10 19 0 31 -26
35 -47 9 -12 -16 -13 -15 -9 12 5 36 32 91 38 75 2 -8 15 -6 41 5 39 16 47 32
22 41 -27 11 -16 24 16 17 39 -8 78 13 72 37 -4 15 2 19 29 22 20 2 32 8 31
16 -2 6 2 12 8 12 8 0 8 5 -1 15 -11 13 -8 15 14 15 21 0 28 6 32 29 4 17 12
32 19 35 11 4 66 -28 110 -66 51 -43 171 -137 226 -178 87 -64 147 -119 154
-140 4 -12 -5 -30 -25 -51 -16 -19 -30 -41 -30 -49 0 -9 -7 -25 -15 -35 -9
-11 -39 -56 -68 -101 -46 -70 -115 -158 -169 -216 -10 -10 -18 -21 -18 -24 0
-8 -104 -135 -147 -181 -18 -18 -33 -38 -33 -43 0 -6 -6 -10 -13 -10 -7 0 -20
-9 -30 -20 -17 -20 -16 -20 863 -20 l880 0 0 284 0 285 -25 19 c-14 11 -25 28
-25 38 0 9 -3 14 -6 11 -4 -3 -16 -1 -27 4 -16 9 -17 13 -6 20 20 12 -2 31
-37 32 -16 1 -31 4 -34 7 -3 3 -35 29 -72 58 -72 55 -138 116 -138 126 0 4 11
4 25 0 14 -3 31 -1 39 5 10 9 16 9 21 1 5 -7 21 -9 48 -5 36 7 39 5 33 -11 -6
-16 -4 -16 16 3 17 15 33 20 60 18 21 -2 40 1 44 6 11 18 24 9 24 -17 0 -15 4
-23 11 -19 6 4 8 9 6 12 -3 2 6 15 19 28 19 19 24 35 24 75 0 38 -4 50 -15 50
-8 0 -14 5 -13 11 2 6 -3 14 -9 16 -7 3 -13 -2 -13 -11 0 -12 -5 -14 -22 -7
-25 9 -48 4 -48 -9 0 -4 9 -10 21 -13 12 -3 18 -10 14 -16 -9 -15 -45 -14 -45
2 0 8 -21 17 -49 23 -47 10 -50 9 -60 -14 -16 -34 -36 -22 -34 22 1 20 -2 36
-7 36 -9 0 -14 -21 -11 -42 0 -4 -5 -5 -13 -2 -7 3 -16 -2 -20 -11 -3 -9 -11
-13 -17 -9 -8 4 -9 -4 -5 -27 3 -19 3 -27 -1 -19 -10 23 -25 30 -70 30 -34 0
-41 -3 -37 -15 9 -22 -20 -19 -41 5 -11 12 -45 37 -76 56 -55 33 -57 36 -52
69 7 41 -23 199 -44 235 l-15 25 21 -25 c11 -14 21 -28 21 -31 0 -7 105 7 120
16 7 4 44 14 83 22 40 8 75 20 79 26 7 12 57 16 64 5 3 -5 10 -6 15 -2 12 7
-8 34 -26 34 -7 0 -16 8 -19 17 -6 15 -8 15 -16 3 -5 -8 -22 -15 -39 -16 -26
-1 -30 2 -34 30 l-4 31 -1 -32 c-2 -27 -7 -33 -39 -43 -21 -7 -46 -19 -56 -28
-9 -8 -20 -12 -23 -9 -4 3 -22 0 -41 -8 -33 -14 -34 -14 -44 11 -8 22 -12 24
-24 14 -12 -10 -15 -10 -15 0 0 6 -6 10 -12 7 -7 -2 -24 12 -37 31 -29 43 -96
177 -115 228 -7 22 -23 55 -35 74 -11 19 -21 37 -21 40 0 3 198 5 440 5 l440
0 0 61 0 61 -132 6 c-73 4 -170 9 -215 12 -59 4 -83 2 -83 -6 0 -8 -4 -8 -15
1 -8 6 -19 9 -24 6 -16 -11 -475 -11 -491 0 -23 14 -121 140 -182 234 -74 114
-107 175 -164 303 -27 60 -65 128 -86 152 -42 48 -155 110 -263 145 -38 13
-110 47 -160 76 -49 29 -171 85 -270 124 -237 93 -251 99 -272 122 -10 11 -34
28 -54 39 -48 24 -218 66 -303 75 l-68 7 5 46 c4 25 9 89 12 141 4 52 15 126
26 163 l20 69 24 -16 c56 -37 124 -6 232 105 87 89 117 157 121 274 2 55 15
138 33 212 24 102 29 143 29 248 0 115 -2 130 -25 176 -14 27 -32 52 -40 56
-8 3 -32 -2 -53 -10 l-37 -15 3 39 c2 21 8 39 13 39 5 0 9 18 9 40 0 23 5 40
11 40 7 0 9 12 4 36 -5 30 -4 36 8 31 17 -6 29 15 21 36 -2 7 2 31 10 53 11
33 11 44 1 64 -17 32 -9 56 13 38 13 -11 13 -8 -1 19 -21 40 -22 77 -2 93 13
11 13 14 1 24 -27 20 -27 125 -1 129 10 2 9 95 -1 130 -3 10 0 17 8 17 10 0
13 11 11 38 -2 27 -1 32 5 18 8 -19 9 -19 15 3 3 12 3 37 1 56 -2 20 0 35 6
35 5 0 10 9 10 20 0 11 5 20 10 20 6 0 10 18 10 41 0 22 -4 38 -9 34 -11 -6
-26 33 -17 42 3 4 6 -2 6 -12 0 -10 3 -16 6 -12 3 3 1 23 -6 44 -6 21 -15 50
-20 66 -5 15 -5 27 -1 27 13 0 112 -104 128 -134 8 -15 16 -40 17 -54 2 -14 8
-28 15 -30 14 -5 6 38 -15 80 -17 32 -18 41 -4 33 6 -3 10 -1 10 5 0 7 -7 10
-15 6 -9 -3 -15 0 -15 8 0 16 -75 96 -90 96 -5 0 -7 7 -4 15 4 8 1 15 -5 15
-7 0 -16 10 -22 23 -9 20 -9 20 -6 -6 3 -17 0 -26 -7 -24 -6 2 -10 13 -8 24 1
10 -6 27 -17 37 -11 10 -17 24 -14 32 3 8 -1 14 -10 14 -9 0 -23 17 -33 38
-31 72 -39 85 -66 114 -31 34 -53 88 -35 88 8 0 8 3 2 8 -17 12 -34 75 -29
103 4 16 16 29 35 36 19 7 35 24 44 46 8 19 18 37 22 39 5 3 3 4 -3 2 -7 -1
-13 20 -17 55 -2 32 -14 72 -26 91 -24 40 -28 65 -6 36 17 -23 20 -14 4 15 -5
11 -14 17 -19 14 -5 -3 -7 4 -5 15 2 13 -1 20 -11 20 -8 0 -14 6 -14 14 0 7
-29 41 -64 74 -65 60 -64 64 9 36 11 -4 17 -3 12 2 -11 11 -98 44 -118 44 -9
0 -23 8 -30 17 -10 11 -10 14 -1 9 6 -4 12 -2 12 3 0 6 -11 10 -25 9 -14 -1
-25 -6 -25 -11 0 -4 -4 -5 -10 -2 -13 8 -13 52 -1 60 5 3 17 -2 25 -11 20 -20
22 3 2 29 -11 14 -15 15 -19 5 -4 -10 -10 -8 -22 7 -16 19 -17 19 -10 -12 7
-36 1 -41 -21 -19 -18 18 -20 81 -2 70 18 -11 48 -12 48 -2 0 7 -5 9 -25 8 -8
-1 -38 31 -69 74 -30 40 -80 68 -112 61 -10 -2 -34 -6 -52 -9 l-32 -6 15 30
c9 18 11 31 5 35 -6 3 -10 -3 -10 -13 0 -28 -24 -34 -44 -10 -10 11 -24 17
-32 14 -8 -3 -14 1 -14 9 0 8 -6 15 -14 15 -7 0 -27 7 -42 15 -37 19 -78 19
-94 0 -15 -18 -3 -37 19 -30 10 3 31 -1 47 -10 16 -8 35 -15 42 -15 6 0 12 -7
12 -16 0 -13 -3 -14 -14 -5 -8 7 -30 13 -48 13 -18 1 -43 8 -55 16 -21 13 -23
13 -23 -2 0 -13 -3 -14 -19 -4 -11 7 -22 21 -25 31 -4 15 -1 18 19 13 14 -4
27 0 35 9 7 8 9 15 4 16 -57 6 -94 5 -94 -3 0 -7 -5 -6 -14 1 -7 6 -33 17 -57
25 -24 8 -77 26 -117 40 -82 29 -88 30 -96 17z m269 -91 c3 -5 11 -8 18 -6 7
1 9 1 5 -1 -3 -2 -4 -15 -2 -29 6 -34 -12 -30 -27 6 -8 16 -20 31 -29 34 -9 2
-6 4 7 5 12 0 24 -3 28 -9z m-10 -61 c-6 -9 -67 -1 -78 10 -6 6 -1 8 13 4 15
-4 21 -2 16 5 -4 7 3 7 23 -1 17 -6 28 -14 26 -18z m286 -29 c6 0 7 5 4 10 -9
15 4 12 21 -4 7 -8 19 -16 26 -19 11 -4 10 -7 0 -18 -11 -12 -14 -12 -22 1 -5
8 -14 16 -20 16 -5 1 -14 2 -20 3 -5 0 -10 9 -9 19 0 10 3 12 6 5 2 -7 9 -13
14 -13z m-781 -1 c0 -5 4 -8 9 -4 14 8 21 -9 11 -25 -7 -11 -11 -11 -24 -1 -9
8 -16 10 -16 5 0 -4 -5 -3 -11 3 -6 6 -8 16 -5 22 9 14 36 14 36 0z m154 -14
c-15 -22 -31 -36 -21 -17 2 4 7 15 10 25 4 9 11 17 17 17 6 0 3 -11 -6 -25z
m526 -26 c17 -30 11 -34 -15 -9 -14 13 -25 27 -25 31 0 14 30 -2 40 -22z m40
-1 c0 -6 7 -16 16 -22 13 -10 13 -12 -5 -13 -12 -1 -21 4 -21 12 0 7 -3 21 -7
31 -4 12 -3 15 5 10 7 -4 12 -12 12 -18z m200 10 c0 -9 4 -8 10 2 6 9 10 10
10 3 0 -7 9 -17 21 -23 19 -11 20 -10 9 9 -8 17 -8 21 4 21 15 0 76 -47 76
-59 0 -3 -18 -6 -41 -6 -22 0 -42 -2 -45 -6 -5 -9 -54 1 -54 11 0 5 8 11 18
13 13 4 11 5 -5 6 -13 0 -23 7 -23 15 0 8 -6 17 -12 19 -7 3 -3 6 10 6 12 1
22 -5 22 -11z m-1815 -13 l40 -14 -40 6 c-22 4 -54 7 -72 7 -17 1 -35 4 -39 9
-12 12 68 6 111 -8z m1685 -26 c0 -21 -18 -15 -34 13 l-18 30 26 -17 c14 -10
26 -21 26 -26z m-1207 24 c-7 -2 -21 -2 -30 0 -10 3 -4 5 12 5 17 0 24 -2 18
-5z m486 -7 c9 -11 6 -12 -14 -8 -14 2 -22 8 -19 13 8 13 20 11 33 -5z m781
-2 c0 -8 -5 -12 -10 -9 -6 4 -8 11 -5 16 9 14 15 11 15 -7z m-725 -24 c-10
-11 -20 -18 -23 -15 -3 3 3 14 13 25 10 11 20 18 23 15 3 -3 -3 -14 -13 -25z
m85 14 c0 -8 -5 -12 -10 -9 -6 4 -8 11 -5 16 9 14 15 11 15 -7z m-636 -19 c38
-16 50 -31 17 -20 -14 4 -23 0 -31 -16 -10 -18 -8 -26 9 -50 29 -39 26 -51 -3
-14 l-25 30 -16 -22 c-17 -24 -45 -31 -45 -12 0 6 9 13 20 16 11 3 20 10 20
15 0 5 -4 6 -10 3 -6 -4 -7 1 -3 11 4 11 8 13 11 6 2 -7 9 -12 15 -12 5 0 7 3
4 7 -4 3 1 15 10 26 17 18 17 19 -2 33 -24 18 -16 18 29 -1z m481 6 c19 -8 19
-8 -4 -20 -18 -10 -22 -10 -16 -1 4 7 1 16 -6 21 -17 11 -1 11 26 0z m560 -31
c3 -6 -3 -10 -14 -10 -12 0 -21 2 -21 4 0 2 -3 12 -7 21 -5 15 -3 16 15 6 11
-6 24 -16 27 -21z m150 0 c-3 -4 -14 -6 -25 -3 -20 5 -25 15 -14 26 9 9 46
-12 39 -23z m115 -1 c0 -16 -4 -28 -8 -25 -5 3 -8 15 -6 28 3 28 3 28 9 28 3
0 5 -14 5 -31z m-1460 1 c-8 -5 -17 -7 -19 -4 -3 3 1 9 9 14 8 5 17 7 19 4 3
-3 -1 -9 -9 -14z m1390 10 c0 -5 -5 -10 -11 -10 -5 0 -7 5 -4 10 3 6 8 10 11
10 2 0 4 -4 4 -10z m-1728 -14 c3 3 5 -3 5 -12 -1 -11 10 -24 26 -32 37 -18
27 -28 -12 -13 -16 7 -31 21 -34 32 -3 10 -13 19 -24 19 -15 0 -15 2 -3 10 9
5 19 5 26 0 6 -6 13 -7 16 -4z m1860 -6 c-4 -12 -2 -12 8 -3 7 7 27 9 47 6 22
-4 38 -1 42 6 6 9 12 7 22 -5 9 -12 10 -15 2 -10 -7 4 -13 3 -13 -3 0 -5 4
-12 9 -15 11 -7 2 -46 -11 -46 -5 0 -6 -9 -3 -20 6 -17 2 -20 -29 -20 -19 0
-38 5 -42 11 -5 8 -9 8 -14 -1 -6 -9 -12 -9 -30 0 -21 11 -21 13 -4 31 9 10
21 16 25 13 5 -3 9 2 9 11 0 13 -4 14 -20 5 -11 -6 -20 -15 -20 -20 0 -6 -4
-10 -10 -10 -16 0 -12 27 7 46 13 13 14 19 5 22 -19 6 -14 18 7 18 12 0 17 -5
13 -16z m81 13 c-7 -2 -19 -2 -25 0 -7 3 -2 5 12 5 14 0 19 -2 13 -5z m-1438
-13 c3 -5 1 -10 -4 -10 -6 0 -11 5 -11 10 0 6 2 10 4 10 3 0 8 -4 11 -10z
m985 -23 c0 -5 -4 -5 -10 -2 -5 3 -10 -2 -11 -12 0 -16 -1 -16 -8 2 -9 23 9
50 21 31 4 -6 8 -15 8 -19z m-365 13 c-3 -5 -14 -10 -23 -10 -15 0 -15 2 -2
10 20 13 33 13 25 0z m-1245 -4 c0 -3 -4 -8 -10 -11 -5 -3 -10 -1 -10 4 0 6 5
11 10 11 6 0 10 -2 10 -4z m1020 -11 c-10 -12 -10 -15 4 -15 9 0 16 -5 16 -11
0 -6 -12 -9 -28 -8 -15 2 -34 0 -42 -5 -8 -4 1 6 20 23 38 33 49 39 30 16z
m260 10 c0 -2 -10 -9 -22 -15 -22 -11 -22 -10 -4 4 21 17 26 19 26 11z m-1485
-16 c-11 -6 -36 -31 -55 -56 -21 -28 -51 -53 -76 -63 -41 -18 -66 -40 -45 -40
6 0 11 4 11 8 0 5 18 16 41 25 35 14 40 14 35 2 -3 -8 -2 -15 2 -15 4 0 8 -8
9 -17 1 -15 4 -49 12 -127 1 -5 8 -3 16 4 13 11 14 10 9 -4 -3 -9 -10 -16 -15
-16 -5 0 -9 -9 -9 -21 0 -11 -4 -17 -10 -14 -5 3 -10 14 -10 23 0 10 -8 34
-19 55 -10 20 -15 35 -11 32 8 -5 22 66 15 73 -3 3 -11 -1 -19 -7 -8 -7 -20
-10 -26 -6 -5 3 -10 0 -10 -8 0 -8 -7 -20 -15 -27 -12 -10 -15 -10 -15 3 0 8
-7 27 -15 43 -13 26 -13 30 7 51 11 12 25 20 29 17 5 -3 9 -1 9 4 0 15 69 64
109 78 43 16 76 17 46 3z m295 -8 c0 -5 3 -18 6 -28 6 -16 5 -16 -9 2 -19 23
-21 35 -7 35 6 0 10 -4 10 -9z m1830 -5 c0 -7 -8 -20 -17 -27 -15 -12 -16 -12
-10 4 3 9 2 17 -4 17 -6 0 -7 5 -4 10 9 15 35 12 35 -4z m-1089 -23 c-8 -15
-10 -15 -11 -2 0 17 10 32 18 25 2 -3 -1 -13 -7 -23z m-388 2 c-3 -9 -8 -14
-10 -11 -3 3 -2 9 2 15 9 16 15 13 8 -4z m647 5 c8 -5 15 -15 15 -22 0 -7 8
-12 17 -10 9 1 20 -3 24 -9 5 -9 2 -10 -9 -6 -10 3 -17 2 -17 -4 0 -15 -16 -2
-40 31 -22 30 -18 38 10 20z m145 0 c-3 -5 -15 -15 -26 -21 -18 -9 -19 -9 -7
10 7 12 19 21 26 21 7 0 10 -4 7 -10z m-833 -22 c-7 -7 -12 -8 -12 -2 0 14 12
26 19 19 2 -3 -1 -11 -7 -17z m-539 -9 c17 -1 -34 -17 -58 -18 -20 0 -20 0 0
15 11 8 26 12 33 9 8 -3 19 -5 25 -6z m676 -30 c-19 -12 -24 -2 -8 17 9 11 14
13 17 4 3 -7 -2 -16 -9 -21z m431 21 c0 -5 -4 -10 -10 -10 -5 0 -10 5 -10 10
0 6 5 10 10 10 6 0 10 -4 10 -10z m580 6 c0 -3 -4 -8 -10 -11 -5 -3 -10 -1
-10 4 0 6 5 11 10 11 6 0 10 -2 10 -4z m265 -12 c-10 -8 -28 -14 -38 -14 -31
0 -4 25 30 27 26 1 27 0 8 -13z m26 -22 c-11 -16 -28 -35 -38 -43 -9 -8 -2 5
17 29 38 48 52 57 21 14z m-951 14 c0 -3 -4 -8 -10 -11 -5 -3 -10 -1 -10 4 0
6 5 11 10 11 6 0 10 -2 10 -4z m1263 -13 c19 -11 -6 -21 -28 -11 -13 6 -22 15
-19 19 4 7 25 4 47 -8z m-2306 1 c-3 -4 0 -16 8 -28 22 -30 19 -36 -20 -34
-19 1 -35 5 -35 9 0 4 -9 5 -20 2 -23 -6 -24 -4 -10 31 8 21 16 26 46 26 21 0
34 -3 31 -6z m530 -31 c-20 -38 -57 -189 -57 -230 0 -19 -4 -32 -9 -29 -8 5 9
139 24 188 12 38 47 109 52 104 2 -2 -2 -17 -10 -33z m1673 29 c0 -13 -12 -22
-22 -16 -10 6 -1 24 13 24 5 0 9 -4 9 -8z m65 -32 c3 -6 -1 -7 -9 -4 -9 3 -16
1 -16 -5 0 -6 -7 -11 -15 -11 -16 0 -20 12 -8 23 10 10 41 8 48 -3z m-180 -10
c-3 -5 -10 -10 -16 -10 -5 0 -9 5 -9 10 0 6 7 10 16 10 8 0 12 -4 9 -10z m248
3 c-7 -2 -21 -2 -30 0 -10 3 -4 5 12 5 17 0 24 -2 18 -5z m-812 -20 c13 -16
12 -17 -3 -4 -10 7 -18 15 -18 17 0 8 8 3 21 -13z m-1775 -61 c6 -38 4 -42
-19 -53 -17 -7 -29 -23 -33 -43 l-7 -31 -9 30 c-10 37 -2 75 16 75 17 0 41 28
32 38 -4 4 -14 -2 -22 -12 -19 -27 -18 -2 2 36 19 37 29 27 40 -40z m1228 35
c3 3 2 11 -4 17 -6 8 -3 12 11 12 12 0 19 -7 19 -18 0 -21 4 -22 30 -8 10 6
21 6 24 1 3 -4 -6 -13 -19 -19 -14 -7 -25 -18 -25 -26 0 -7 -7 -16 -15 -20
-13 -5 -13 -2 1 18 9 15 11 27 5 30 -10 7 -13 3 -37 -42 l-14 -27 0 32 c0 17
-5 44 -10 60 l-10 28 19 -22 c10 -12 21 -19 25 -16z m1429 13 c7 0 19 -5 27
-10 13 -9 13 -11 0 -20 -12 -8 -11 -10 8 -10 12 0 22 -5 22 -11 0 -6 7 -8 16
-5 17 7 44 -9 44 -26 0 -6 -7 -5 -15 2 -9 7 -18 10 -21 7 -3 -3 11 -16 31 -30
20 -14 44 -36 52 -49 12 -17 8 -16 -18 8 -42 39 -83 60 -132 68 -40 6 -77 25
-77 39 0 5 -6 7 -14 4 -8 -3 -17 0 -19 8 -3 7 4 16 16 20 12 5 31 11 42 15 11
3 22 3 23 -2 2 -4 9 -8 15 -8z m-1303 0 c-20 -13 -33 -13 -25 0 3 6 14 10 23
10 15 0 15 -2 2 -10z m771 0 c5 0 9 -4 9 -10 0 -14 -13 -12 -36 6 -17 14 -17
15 -1 10 10 -3 23 -6 28 -6z m239 2 c0 -13 -12 -22 -22 -16 -10 6 -1 24 13 24
5 0 9 -4 9 -8z m207 2 c-3 -3 -12 -4 -19 -1 -8 3 -5 6 6 6 11 1 17 -2 13 -5z
m-57 -14 c0 -5 6 -10 14 -10 24 0 26 -15 4 -29 -13 -8 -18 -8 -13 -1 4 6 -1
20 -11 31 -10 11 -12 19 -6 19 7 0 12 -4 12 -10z m-430 -44 c0 -14 -34 -28
-44 -18 -9 8 14 32 30 32 8 0 14 -6 14 -14z m520 -12 c0 -2 -15 -4 -32 -4 -23
0 -29 3 -19 9 12 8 51 4 51 -5z m-1276 -1 c-5 -5 -12 -12 -16 -18 -4 -6 -8 -2
-8 8 0 9 7 17 17 17 9 0 12 -3 7 -7z m-909 -23 c-3 -5 -10 -10 -16 -10 -5 0
-9 5 -9 10 0 6 7 10 16 10 8 0 12 -4 9 -10z m649 -9 c-10 -10 -21 -17 -23 -15
-6 6 20 34 32 34 6 0 2 -8 -9 -19z m-713 -17 c39 -20 30 -30 -13 -15 l-33 11
33 -26 c36 -29 44 -51 11 -33 -12 6 -39 16 -61 22 -22 7 -40 15 -39 20 1 4 4
6 7 5 3 -2 10 5 15 15 12 21 41 22 80 1z m-366 -109 c-1 -52 -5 -98 -8 -102
-4 -3 -7 -1 -7 6 0 7 -5 9 -11 5 -9 -5 -10 12 -4 62 10 93 17 124 28 124 2 0
2 -43 2 -95z m48 75 c-5 -19 -23 -29 -23 -12 0 7 20 32 26 32 1 0 0 -9 -3 -20z
m1343 4 c-3 -9 -7 -37 -7 -62 -1 -26 -3 -39 -6 -29 -5 18 -5 18 -20 0 -14 -17
-14 -17 -9 1 4 10 11 38 17 62 6 24 16 44 21 44 6 0 7 -7 4 -16z m-1321 -29
c-3 -30 15 -34 22 -5 5 20 33 29 33 10 0 -5 -4 -10 -10 -10 -5 0 -10 -5 -10
-11 0 -6 6 -9 13 -6 8 3 19 2 26 -2 13 -9 4 -41 -11 -41 -7 0 -6 5 1 14 9 11
6 15 -15 19 -31 6 -64 -25 -64 -60 0 -13 -5 -23 -11 -23 -14 0 -6 89 11 120
14 27 19 25 15 -5z m1148 -7 c-4 -13 -7 -43 -6 -68 0 -25 -1 -35 -4 -22 -2 12
-8 22 -12 22 -4 0 -6 15 -4 33 6 45 11 57 23 57 7 0 9 -8 3 -22z m-1494 -81
c-2 -1 -15 -11 -29 -22 l-25 -20 19 23 c11 12 24 22 29 22 6 0 8 -1 6 -3z
m1151 -25 c0 -5 -3 -12 -7 -16 -5 -4 -13 -29 -19 -54 -10 -41 -12 -43 -13 -16
-1 36 17 94 30 94 5 0 9 -4 9 -8z m978 -11 c11 -7 10 -9 -3 -14 -9 -4 -14 -3
-10 2 3 5 -1 12 -7 14 -7 3 -8 6 -3 6 6 0 16 -3 23 -8z m-1342 -39 c-18 -16
-18 -16 -6 6 6 13 14 21 18 18 3 -4 -2 -14 -12 -24z m306 -4 c-7 -7 -12 -8
-12 -2 0 14 12 26 19 19 2 -3 -1 -11 -7 -17z m-972 -3 c7 -9 11 -17 9 -18 -15
-10 -82 -28 -86 -23 -3 3 -15 0 -27 -6 -21 -11 -21 -11 -2 11 15 16 21 18 28
9 6 -10 8 -9 8 3 0 9 10 21 23 27 30 14 33 14 47 -3z m30 11 c0 -11 -19 -15
-25 -6 -3 5 1 10 9 10 9 0 16 -2 16 -4z m-150 -10 c0 -3 -4 -8 -10 -11 -5 -3
-10 -1 -10 4 0 6 5 11 10 11 6 0 10 -2 10 -4z m1062 -18 c-7 -7 -11 -28 -11
-47 1 -22 3 -28 6 -16 10 37 24 68 28 63 3 -3 0 -29 -6 -58 -7 -31 -14 -48
-19 -40 -5 8 -9 7 -14 -5 -3 -9 -4 -20 -2 -24 3 -4 -24 -33 -59 -65 -36 -32
-63 -62 -60 -66 7 -11 -14 -25 -68 -45 -26 -10 -52 -25 -57 -34 -6 -10 -10
-11 -10 -3 0 7 -11 17 -25 22 -14 5 -25 14 -25 19 0 6 7 7 17 4 11 -4 14 -3 9
5 -8 14 0 14 29 3 22 -9 71 12 119 51 26 22 27 25 12 40 -23 23 -20 35 3 14
31 -29 45 -9 19 27 -15 21 -18 32 -10 35 9 3 10 15 6 39 -4 24 -3 34 4 30 15
-10 24 -57 13 -71 -7 -9 -5 -17 9 -28 18 -16 20 -15 44 17 19 24 26 46 26 77
0 38 13 68 29 68 3 0 0 -5 -7 -12z m1028 8 c0 -2 -7 -6 -15 -10 -8 -3 -15 -1
-15 4 0 6 7 10 15 10 8 0 15 -2 15 -4z m-2110 -36 c0 -11 -4 -20 -10 -20 -5 0
-10 -9 -10 -19 0 -11 -4 -22 -10 -26 -5 -3 -8 7 -7 25 1 16 8 32 15 35 7 3 10
9 7 15 -3 5 -1 10 4 10 6 0 11 -9 11 -20z m2127 -6 c-3 -3 -12 -4 -19 -1 -8 3
-5 6 6 6 11 1 17 -2 13 -5z m-2081 -69 c1 -30 -3 -55 -8 -55 -5 0 -8 25 -7 55
1 30 5 55 9 55 3 0 6 -25 6 -55z m445 36 c-10 -7 -11 -13 -2 -27 6 -11 11 -14
11 -7 0 15 53 -2 71 -23 6 -8 20 -14 31 -14 10 0 17 -4 14 -8 -2 -4 11 -25 30
-47 19 -23 29 -42 23 -44 -6 -2 -14 1 -18 7 -3 5 -47 32 -98 59 -70 37 -90 52
-83 63 5 8 6 18 3 22 -6 11 18 41 26 33 3 -3 -1 -10 -8 -14z m-378 -12 c4 -16
3 -18 -9 -8 -16 13 -19 29 -5 29 5 0 11 -9 14 -21z m19 -59 c5 -34 -7 -41 -17
-10 -5 17 0 40 9 40 2 0 6 -13 8 -30z m305 8 c-3 -8 -6 -5 -6 6 -1 11 2 17 5
13 3 -3 4 -12 1 -19z m-164 0 c-4 -7 -8 -16 -8 -20 0 -3 -3 -9 -7 -13 -3 -4
-5 1 -3 12 2 10 4 21 4 26 1 4 6 7 12 7 6 0 7 -5 2 -12z m146 -21 c-2 -1 -13
-9 -24 -17 -19 -14 -19 -14 -6 3 7 9 18 17 24 17 6 0 8 -1 6 -3z m-146 -54
c-9 -27 -19 -82 -23 -123 l-7 -75 -1 70 c-2 60 14 134 34 167 12 19 11 4 -3
-39z m398 37 c5 0 9 -4 9 -9 0 -12 -38 -2 -47 12 -4 7 0 8 11 4 10 -4 22 -7
27 -7z m-261 -43 c-11 -24 -22 -63 -25 -87 -6 -47 -15 -67 -15 -32 0 11 -4 24
-10 27 -6 4 -10 -10 -10 -35 0 -23 -4 -39 -9 -35 -6 3 -9 -10 -8 -30 1 -19 6
-35 12 -35 5 0 4 -5 -2 -11 -5 -5 -8 -21 -5 -35 3 -18 7 -22 13 -13 4 8 11 10
15 6 4 -3 1 -14 -7 -24 -12 -15 -12 -16 2 -11 13 5 16 2 12 -15 -4 -21 -4 -21
15 3 11 13 18 28 16 32 -3 4 -2 8 3 8 4 0 32 23 61 50 30 28 58 50 65 50 10 0
-5 -18 -51 -63 -52 -49 -114 -154 -123 -208 -8 -52 -8 -51 -4 18 2 40 0 75 -4
78 -16 9 -44 -73 -38 -115 3 -22 3 -40 1 -40 -2 0 -20 16 -39 36 -26 27 -34
42 -30 58 5 17 4 18 -4 6 -9 -12 -10 -9 -9 13 3 32 6 33 24 10 12 -16 13 -7
10 57 -3 41 -7 91 -10 110 -3 19 2 9 10 -23 9 -32 20 -55 24 -50 12 13 30 74
30 101 0 43 32 145 41 130 6 -9 10 -7 15 7 15 43 43 105 48 105 3 0 -4 -19
-14 -43z m2690 33 c0 -5 -2 -10 -4 -10 -3 0 -8 5 -11 10 -3 6 -1 10 4 10 6 0
11 -4 11 -10z m-2885 -22 c-6 -22 -6 -22 16 2 l21 25 -15 -25 c-8 -14 -20 -24
-25 -23 -5 1 -10 -8 -10 -20 0 -12 -5 -44 -11 -72 -8 -33 -8 -51 -1 -53 5 -2
10 -11 10 -20 0 -15 -2 -15 -10 -2 -7 10 -8 0 -5 -34 6 -55 24 -126 37 -140
11 -13 10 -26 -2 -26 -44 0 -64 284 -26 368 21 46 31 55 21 20z m1309 -60 c-2
-57 3 -109 17 -167 10 -46 18 -86 15 -88 -2 -2 -7 8 -10 22 -4 14 -10 23 -15
21 -17 -11 -34 112 -27 189 6 68 13 105 21 105 1 0 1 -37 -1 -82z m-1521 65
c-7 -2 -13 -9 -13 -15 0 -6 7 -8 15 -4 8 3 15 1 15 -4 0 -6 -8 -10 -17 -10 -9
0 -28 -10 -41 -22 -26 -24 -21 -8 7 26 15 18 15 19 -6 14 -13 -4 -25 -2 -28 2
-3 5 3 11 12 13 25 6 71 7 56 0z m1033 -22 c-4 -6 -13 -11 -20 -11 -8 0 -19
-7 -26 -15 -7 -8 -17 -15 -23 -15 -5 0 5 15 24 34 19 18 38 30 43 26 4 -5 5
-13 2 -19z m2081 -13 c-3 -8 -6 -5 -6 6 -1 11 2 17 5 13 3 -3 4 -12 1 -19z
m-2481 -7 c-3 -5 8 -14 24 -21 17 -7 29 -15 26 -17 -8 -8 -67 28 -61 37 4 6 8
10 11 10 3 0 3 -4 0 -9z m-9 -33 c18 -18 33 -36 33 -40 0 -14 -27 -9 -41 8 -7
9 -25 21 -39 26 -14 6 -20 12 -12 15 6 3 10 9 6 14 -13 22 23 6 53 -23z m445
-16 c20 -20 -39 -18 -63 1 l-24 20 39 -6 c22 -4 43 -10 48 -15z m582 -8 c5
-14 4 -15 -9 -4 -17 14 -19 20 -6 20 5 0 12 -7 15 -16z m-683 -21 c-8 -15 -10
-15 -11 -2 0 17 10 32 18 25 2 -3 -1 -13 -7 -23z m762 -9 c11 -14 17 -28 14
-30 -3 -3 -15 9 -27 25 -12 17 -18 31 -13 31 4 0 16 -12 26 -26z m-460 -21
c-3 -7 0 -13 6 -13 6 0 17 -13 26 -30 26 -50 20 -49 -46 13 -29 26 -35 55 -10
50 6 -2 11 3 11 10 0 8 3 8 9 -2 5 -8 7 -20 4 -28z m372 19 c-3 -3 -11 0 -18
7 -9 10 -8 11 6 5 10 -3 15 -9 12 -12z m-249 -41 c-4 -5 -3 -17 1 -27 6 -16 7
-16 15 2 6 14 7 12 3 -8 -4 -19 5 -47 30 -94 39 -73 41 -98 4 -37 -35 56 -69
144 -69 178 1 25 2 27 11 12 5 -9 8 -21 5 -26z m-971 -10 c-3 -6 -15 -8 -28
-6 -21 4 -21 4 -3 -10 18 -13 18 -14 -3 -12 -27 2 -27 24 2 47 18 15 23 16 30
4 4 -8 5 -18 2 -23z m1282 17 c-3 -8 -6 -5 -6 6 -1 11 2 17 5 13 3 -3 4 -12 1
-19z m1433 2 c0 -5 -4 -10 -10 -10 -5 0 -10 5 -10 10 0 6 5 10 10 10 6 0 10
-4 10 -10z m-2174 -27 c-10 -10 -19 5 -10 18 6 11 8 11 12 0 2 -7 1 -15 -2
-18z m1 -28 c45 -46 54 -78 10 -37 -13 12 -29 22 -35 22 -7 0 -12 5 -12 12 0
6 -7 20 -17 30 -11 12 -12 18 -4 18 7 0 33 -20 58 -45z m2229 -7 c14 -22 23
-42 20 -45 -2 -3 -14 13 -26 36 -11 23 -25 41 -30 41 -6 0 -10 5 -10 11 0 17
19 -1 46 -43z m-1437 9 l25 -32 -32 29 c-33 31 -37 36 -24 35 4 0 18 -14 31
-32z m-589 2 c0 -6 -7 -17 -15 -25 -13 -14 -15 -13 -15 9 0 13 3 27 6 30 9 8
24 -1 24 -14z m97 6 c12 -8 22 -23 22 -33 0 -9 3 -30 6 -47 l7 -30 -15 25 c-8
14 -24 42 -36 63 -24 39 -19 47 16 22z m-802 -15 c-3 -5 -11 -10 -16 -10 -6 0
-7 5 -4 10 3 6 11 10 16 10 6 0 7 -4 4 -10z m-65 -10 c0 -5 -7 -10 -15 -10 -8
0 -15 5 -15 10 0 6 7 10 15 10 8 0 15 -4 15 -10z m595 -79 c-6 -5 -21 -12 -35
-15 l-25 -7 25 15 c28 17 50 21 35 7z m-1115 -56 c0 -17 -2 -17 -10 -5 -5 8
-10 24 -10 35 0 17 2 17 10 5 5 -8 10 -24 10 -35z m297 3 c-3 -8 -6 -5 -6 6
-1 11 2 17 5 13 3 -3 4 -12 1 -19z m1326 -40 c14 -2 18 -6 10 -11 -12 -8 -83
47 -83 65 0 5 11 -4 25 -21 14 -16 36 -31 48 -33z m-680 33 c3 -12 -3 -27 -13
-36 -16 -15 -17 -14 -6 20 6 19 12 35 12 35 1 0 4 -9 7 -19z m-78 -30 c-3 -11
-1 -22 5 -26 7 -4 7 -12 0 -26 -6 -10 -7 -19 -3 -19 4 0 2 -5 -5 -12 -7 -7
-12 -22 -12 -34 0 -24 -72 -109 -83 -98 -9 9 -9 106 0 157 4 24 9 34 14 26 5
-9 15 -4 34 19 30 36 60 44 50 13z m-828 -39 c-11 -5 -37 18 -37 34 0 9 8 5
23 -9 12 -12 18 -24 14 -25z m856 33 c-3 -9 -8 -14 -10 -11 -3 3 -2 9 2 15 9
16 15 13 8 -4z m-543 1 c0 -3 -4 -8 -10 -11 -5 -3 -10 -1 -10 4 0 6 5 11 10
11 6 0 10 -2 10 -4z m1244 -22 c5 -14 4 -15 -9 -4 -17 14 -19 20 -6 20 5 0 12
-7 15 -16z m-64 -12 c0 -5 -7 -17 -15 -28 -15 -19 -20 -8 -9 20 6 17 24 22 24
8z m23 -32 c-5 -19 -23 -39 -23 -25 0 9 20 45 24 45 2 0 2 -9 -1 -20z m-1439
-26 c3 -8 2 -14 -2 -14 -10 0 -32 22 -32 32 0 12 28 -2 34 -18z m220 -29 c-26
-19 -56 -26 -46 -11 35 54 35 54 50 39 13 -12 12 -16 -4 -28z m1032 0 c-2 6 0
17 5 25 6 11 8 3 5 -25 -2 -23 -9 -39 -15 -37 -6 1 -16 -9 -21 -23 -5 -14 -14
-25 -20 -25 -6 0 -4 12 5 30 17 33 20 64 5 55 -6 -4 -10 6 -10 22 l0 28 26
-30 c14 -16 23 -25 20 -20z m227 -10 c-9 -19 -18 -33 -21 -31 -4 5 26 66 33
66 3 0 -3 -16 -12 -35z m-854 -22 c-1 -27 -3 -40 -6 -30 -2 9 -8 17 -13 17 -5
0 -7 7 -5 15 3 8 7 22 10 30 9 29 15 15 14 -32z m-685 -58 c-53 -53 -74 -66
-74 -45 0 6 6 10 13 10 8 0 20 11 27 25 7 14 18 25 24 25 6 0 20 11 30 25 10
13 22 22 27 20 4 -3 -17 -30 -47 -60z m1336 30 c0 -8 -4 -15 -10 -15 -5 0 -7
7 -4 15 4 8 8 15 10 15 2 0 4 -7 4 -15z m-493 -27 c-3 -7 -5 -2 -5 12 0 14 2
19 5 13 2 -7 2 -19 0 -25z m-150 -30 c-3 -7 -5 -2 -5 12 0 14 2 19 5 13 2 -7
2 -19 0 -25z m2729 -30 c-15 -25 -19 -14 -11 29 7 35 8 36 15 13 3 -14 2 -33
-4 -42z m-2115 19 c-10 -9 -11 -8 -5 6 3 10 9 15 12 12 3 -3 0 -11 -7 -18z
m-1406 -65 c-5 -13 -8 -14 -15 -3 -5 8 -3 19 3 26 14 15 22 1 12 -23z m1819
-28 c-10 -15 -20 -22 -22 -16 -2 6 5 23 14 38 10 15 20 22 22 16 2 -6 -5 -23
-14 -38z m-974 -19 c0 -14 -4 -25 -9 -25 -4 0 -6 11 -3 25 2 14 6 25 8 25 2 0
4 -11 4 -25z m1070 16 c0 -6 -4 -13 -10 -16 -5 -3 -10 1 -10 9 0 9 5 16 10 16
6 0 10 -4 10 -9z m-86 -72 c-8 -14 -24 -10 -24 6 0 9 6 12 15 9 8 -4 12 -10 9
-15z m196 -3 c0 -2 -8 -10 -17 -17 -16 -13 -17 -12 -4 4 13 16 21 21 21 13z
m-155 -55 c0 -22 -4 -43 -9 -48 -5 -4 -5 3 -1 16 5 16 4 21 -4 17 -6 -4 -11
-15 -12 -24 0 -10 -3 -12 -6 -5 -5 15 15 83 26 83 3 0 6 -18 6 -39z m91 -29
c-18 -16 -18 -16 -6 6 6 13 14 21 18 18 3 -4 -2 -14 -12 -24z m-981 -20 c-7
-8 -35 7 -35 18 0 6 7 6 20 -2 10 -7 17 -14 15 -16z m735 -197 c-15 -18 0 -21
18 -3 7 7 12 8 12 2 0 -6 -8 -18 -17 -27 -15 -13 -21 -13 -35 -3 -10 7 -18 19
-18 26 0 7 8 19 18 26 22 16 40 1 22 -21z m-83 19 c-3 -3 -12 -4 -19 -1 -8 3
-5 6 6 6 11 1 17 -2 13 -5z m449 -144 c-1 -23 -6 -42 -14 -45 -10 -4 -11 4 -6
33 6 35 12 52 18 52 1 0 2 -18 2 -40z m-686 -6 c0 -10 -20 -3 -41 16 l-24 20
33 -16 c17 -8 32 -17 32 -20z m-425 -74 c20 -8 26 -15 22 -30 -3 -14 0 -20 10
-20 13 0 13 -3 3 -15 -10 -12 -10 -15 4 -15 22 0 20 -17 -4 -32 -11 -7 -20
-20 -20 -29 0 -8 -33 -37 -74 -63 -81 -52 -136 -101 -136 -121 0 -15 -22 -25
-53 -25 -16 0 -10 -6 20 -19 46 -21 97 -30 100 -17 1 5 7 12 13 16 8 5 0 11
-21 15 -27 6 -30 9 -15 14 24 9 76 1 76 -11 0 -5 -6 -6 -12 -2 -7 4 2 -7 21
-24 18 -18 31 -38 28 -45 -3 -9 12 -20 45 -32 27 -10 52 -23 55 -31 7 -18 31
-26 83 -29 25 -2 82 -6 128 -9 91 -6 131 4 139 33 3 13 11 17 25 13 17 -4 19
-11 14 -41 -4 -28 -4 -31 4 -14 5 13 12 44 15 70 6 54 15 70 15 27 0 -49 -35
-165 -69 -233 -92 -180 -287 -280 -487 -249 -340 52 -567 520 -374 775 47 64
152 118 224 117 30 0 42 2 30 6 -15 6 -9 10 26 18 60 13 133 14 165 2z m2174
-105 c13 -18 36 -29 75 -37 31 -7 56 -16 56 -20 0 -9 -32 -3 -85 13 -23 8 -32
6 -41 -6 -15 -20 -50 -19 -58 1 -3 9 -6 29 -6 45 0 38 30 39 59 4z m-250 -65
c-1 -23 -2 -22 -9 5 -4 17 -11 39 -14 50 -5 13 -2 12 8 -5 8 -14 15 -36 15
-50z m-1483 -55 c13 -28 27 -74 31 -102 5 -49 4 -53 -27 -81 -20 -19 -39 -28
-51 -25 -10 3 -17 9 -14 13 3 5 -2 16 -11 24 -14 15 -14 16 1 16 19 0 38 46
29 73 -6 20 -6 20 10 4 26 -25 37 -21 25 10 -6 17 -6 28 0 32 6 4 5 16 -4 31
-8 14 -17 32 -21 40 -4 8 -21 31 -38 50 l-31 35 38 -35 c21 -19 49 -58 63 -85z
m484 68 c-1 -10 -8 -40 -16 -68 l-14 -50 6 45 c3 25 5 55 5 68 -1 12 4 22 9
22 6 0 10 -8 10 -17z m1429 -15 c12 -15 11 -18 -3 -18 -10 0 -16 8 -16 22 0
12 1 19 3 17 1 -2 9 -12 16 -21z m-1688 -15 c-5 -10 -24 -47 -42 -83 -35 -72
-43 -80 -70 -73 -11 3 -26 0 -33 -7 -12 -9 -16 -5 -21 27 -3 21 -13 56 -21 78
-7 21 -11 42 -6 47 13 13 84 26 145 27 51 1 56 -1 48 -16z m1259 -228 c-12
-61 -56 -164 -85 -200 -9 -11 -2 9 15 44 42 86 70 198 72 295 l2 81 4 -80 c2
-44 -2 -107 -8 -140z m-1837 160 c10 -14 13 -25 7 -25 -20 0 -10 -38 13 -45
21 -6 21 -7 -6 -15 -32 -10 -110 -4 -149 12 -22 8 -26 14 -18 27 9 19 100 67
130 70 3 0 13 -11 23 -24z m440 -124 c-3 -13 2 -20 17 -24 l21 -5 -21 -41
c-11 -23 -22 -41 -23 -41 -2 0 -2 14 1 30 3 18 0 30 -7 30 -15 0 -14 43 1 58
16 16 17 15 11 -7z m-96 -73 c-3 -8 -6 -5 -6 6 -1 11 2 17 5 13 3 -3 4 -12 1
-19z m20 -10 c-3 -8 -6 -5 -6 6 -1 11 2 17 5 13 3 -3 4 -12 1 -19z m44 -101
c-10 -9 -11 -8 -5 6 3 10 9 15 12 12 3 -3 0 -11 -7 -18z m-20 -48 c-5 -13 -10
-19 -10 -12 -1 15 10 45 15 40 3 -2 0 -15 -5 -28z m328 -714 c35 -30 59 -91
42 -108 -6 -6 -11 -8 -11 -3 0 4 -10 0 -22 -8 -12 -9 -33 -16 -45 -16 -21 0
-25 13 -13 50 1 3 1 29 0 58 -1 29 3 52 9 52 5 0 23 -11 40 -25z m-104 -265
c3 -5 1 -10 -4 -10 -6 0 -11 5 -11 10 0 6 2 10 4 10 3 0 8 -4 11 -10z m-137
-108 c-10 -2 -18 -8 -18 -13 0 -6 -4 -7 -10 -4 -24 15 10 40 35 26 6 -3 2 -7
-7 -9z m82 -68 c0 -34 -4 -43 -21 -47 -19 -5 -20 -3 -14 21 3 15 9 42 12 61 7
44 23 21 23 -35z m140 59 c0 -5 -5 -15 -10 -23 -8 -12 -10 -11 -10 8 0 12 5
22 10 22 6 0 10 -3 10 -7z m71 -44 c-5 -13 -10 -17 -11 -9 0 8 -3 26 -6 40 -6
23 -5 24 10 9 13 -12 14 -21 7 -40z m-41 10 c0 -10 -4 -19 -10 -19 -5 0 -10
12 -10 26 0 14 4 23 10 19 6 -3 10 -15 10 -26z m-98 -11 c-9 -9 -12 -7 -12 12
0 19 3 21 12 12 9 -9 9 -15 0 -24z m-732 -508 c0 -5 -5 -10 -11 -10 -5 0 -7 5
-4 10 3 6 8 10 11 10 2 0 4 -4 4 -10z m712 -232 c-7 -7 -12 -8 -12 -2 0 14 12
26 19 19 2 -3 -1 -11 -7 -17z m-539 -5 c-10 -4 -9 -10 2 -26 8 -12 15 -35 14
-52 l0 -30 -19 40 -19 40 5 -35 c5 -32 4 -33 -9 -17 -11 13 -17 15 -22 7 -14
-23 -25 6 -13 32 13 27 59 61 68 51 3 -3 -1 -8 -7 -10z m-215 0 c-10 -2 -18
-10 -18 -16 0 -7 -14 -23 -30 -37 -20 -17 -33 -38 -36 -62 -4 -21 -10 -35 -15
-33 -4 3 -10 1 -14 -5 -3 -5 -16 -15 -28 -21 -15 -8 -10 1 16 31 20 24 37 51
37 59 0 9 -8 2 -19 -15 -11 -18 -38 -46 -60 -65 -23 -18 -39 -34 -36 -37 2 -3
11 1 19 8 26 21 -9 -42 -39 -70 -31 -29 -33 -15 -3 17 12 13 19 25 16 28 -8 8
-238 -240 -238 -257 0 -12 -54 -81 -120 -153 -30 -33 -73 -82 -95 -108 -51
-62 -71 -73 -91 -53 -14 14 -14 18 0 38 9 12 24 27 34 33 10 5 45 42 77 80 32
39 81 95 110 125 29 30 59 65 67 78 27 41 220 254 298 330 73 70 139 113 170
111 11 -1 10 -3 -2 -6z m2949 -105 c-2 -13 -4 -5 -4 17 -1 22 1 32 4 23 2 -10
2 -28 0 -40z m-69 -33 c-3 -3 -9 2 -12 12 -6 14 -5 15 5 6 7 -7 10 -15 7 -18z
m20 -40 c-3 -3 -9 2 -12 12 -6 14 -5 15 5 6 7 -7 10 -15 7 -18z m199 -29 c-3
-7 -1 -18 5 -24 7 -7 3 -14 -12 -22 -15 -8 -20 -8 -16 -1 4 6 -1 14 -11 18
-42 15 -32 43 16 43 16 0 21 -4 18 -14z m-1390 -88 c-3 -8 -6 -5 -6 6 -1 11 2
17 5 13 3 -3 4 -12 1 -19z m43 12 c0 -5 -4 -10 -10 -10 -5 0 -10 5 -10 10 0 6
5 10 10 10 6 0 10 -4 10 -10z m-2011 -28 c-24 -8 -49 -34 -66 -69 -8 -19 -18
-32 -20 -29 -3 3 -17 -9 -30 -25 -14 -16 -28 -28 -31 -25 -2 3 10 24 29 46 19
22 49 58 67 79 23 28 38 38 50 34 13 -6 13 -7 1 -11z m1971 -31 c0 -6 -4 -13
-10 -16 -5 -3 -10 1 -10 9 0 9 5 16 10 16 6 0 10 -4 10 -9z m65 -1 c3 -6 -1
-7 -9 -4 -18 7 -21 14 -7 14 6 0 13 -4 16 -10z m-1748 -17 c8 -10 12 -13 9 -6
-4 6 -2 14 3 17 9 6 65 -133 58 -141 -3 -2 -10 10 -17 27 -20 48 -31 35 -14
-17 14 -43 28 -97 17 -65 -3 6 -9 12 -14 12 -5 0 -8 3 -7 8 1 4 -6 23 -14 42
-10 21 -17 28 -17 17 -1 -9 3 -25 8 -35 12 -22 23 -52 28 -77 6 -31 -13 -5
-27 37 -6 21 -16 41 -22 44 -7 5 -9 0 -5 -14 4 -12 10 -31 13 -42 4 -12 2 -20
-5 -20 -6 0 -11 7 -11 15 0 8 -9 15 -20 15 -11 0 -20 3 -20 8 0 4 -11 8 -25
10 -14 1 -36 3 -49 5 -13 1 -22 5 -19 10 2 4 -1 7 -6 7 -6 0 -11 5 -11 12 0 6
3 8 7 5 6 -7 23 17 43 62 34 76 84 104 117 64z m78 -50 c23 -54 14 -61 -11 -8
-11 25 -17 45 -12 45 4 0 15 -17 23 -37z m1649 21 c-13 -11 -15 -17 -6 -20 6
-3 12 -10 12 -16 0 -6 -7 -7 -15 -4 -8 3 -22 9 -30 12 -11 5 -13 2 -9 -10 4
-10 12 -15 19 -13 6 3 17 -4 24 -15 10 -16 10 -19 -1 -15 -7 2 -21 -2 -30 -10
-10 -9 -25 -12 -37 -8 -30 9 -26 28 4 23 14 -3 25 -1 25 3 0 5 -7 9 -15 9 -9
0 -18 6 -21 14 -7 19 32 57 51 50 8 -4 15 -1 15 5 0 6 8 11 17 11 15 0 14 -2
-3 -16z m46 -24 c0 -5 -5 -10 -11 -10 -5 0 -7 5 -4 10 3 6 8 10 11 10 2 0 4
-4 4 -10z m-1655 -11 c11 -16 1 -19 -13 -3 -7 8 -8 14 -3 14 5 0 13 -5 16 -11z
m-695 -23 c0 -3 -4 -8 -10 -11 -5 -3 -10 -1 -10 4 0 6 5 11 10 11 6 0 10 -2
10 -4z m684 -52 c3 -8 2 -12 -4 -9 -6 3 -10 10 -10 16 0 14 7 11 14 -7z m-314
-4 c0 -5 -2 -10 -4 -10 -3 0 -8 5 -11 10 -3 6 -1 10 4 10 6 0 11 -4 11 -10z
m1794 -31 c-5 -9 9 -13 36 -9 8 1 21 9 29 18 10 13 12 14 9 2 -3 -8 -17 -21
-32 -28 -24 -12 -30 -12 -47 4 -23 20 -25 36 -4 28 8 -4 12 -10 9 -15z m-1454
-50 c0 -13 -13 -11 -35 5 -18 13 -18 14 8 9 15 -3 27 -9 27 -14z m-695 -45
c-19 -25 -33 -50 -29 -55 3 -5 0 -9 -5 -9 -23 0 -10 36 26 72 20 21 38 38 40
38 2 0 -13 -21 -32 -46z m3500 6 c-3 -5 -11 -10 -16 -10 -6 0 -7 5 -4 10 3 6
11 10 16 10 6 0 7 -4 4 -10z m1898 3 c-13 -2 -35 -2 -50 0 -16 2 -5 4 22 4 28
0 40 -2 28 -4z m-170 -20 c-7 -2 -19 -2 -25 0 -7 3 -2 5 12 5 14 0 19 -2 13
-5z m-3576 -45 c-3 -8 -6 -5 -6 6 -1 11 2 17 5 13 3 -3 4 -12 1 -19z m-1747
-50 c-51 -56 -85 -87 -89 -82 -3 2 19 29 49 59 30 30 56 53 58 51 2 -3 -6 -15
-18 -28z m2200 10 c0 -6 8 -21 18 -32 17 -20 16 -20 -3 -6 -11 8 -23 20 -27
25 -11 15 -10 37 2 30 6 -3 10 -11 10 -17z m-2511 -87 c-18 -33 -35 -58 -37
-56 -2 2 11 30 30 63 18 33 34 59 36 57 2 -2 -11 -31 -29 -64z m2441 54 c10
-12 10 -15 -3 -15 -8 0 -17 7 -21 15 -3 8 -2 15 3 15 5 0 14 -7 21 -15z m61
-23 c-7 -2 -18 1 -23 6 -8 8 -4 9 13 5 13 -4 18 -8 10 -11z m69 4 c0 -3 -4 -8
-10 -11 -5 -3 -10 -1 -10 4 0 6 5 11 10 11 6 0 10 -2 10 -4z m-46 -45 c-2 -3
-12 3 -22 13 -16 17 -16 18 5 5 12 -7 20 -15 17 -18z m-39 -5 c20 -19 20 -20
-7 -3 -35 22 -46 5 -16 -24 19 -18 20 -21 5 -15 -10 3 -23 6 -29 6 -6 0 -8 7
-4 15 3 8 1 15 -5 15 -6 0 -8 4 -5 9 4 5 0 11 -6 14 -7 2 1 4 17 3 17 0 39
-10 50 -20z m-92 -7 c4 -16 3 -18 -9 -8 -16 13 -19 29 -5 29 5 0 11 -9 14 -21z
m287 17 c0 -3 -4 -8 -10 -11 -5 -3 -10 -1 -10 4 0 6 5 11 10 11 6 0 10 -2 10
-4z m26 -43 c-7 -7 -26 7 -26 19 0 6 6 6 15 -2 9 -7 13 -15 11 -17z m-316 -37
c0 -6 -11 1 -25 16 -14 15 -25 30 -25 34 0 4 11 -3 25 -16 14 -13 25 -28 25
-34z m50 4 c0 -5 9 -10 20 -10 11 0 20 -7 20 -15 0 -12 -4 -13 -18 -6 -26 14
-48 41 -33 41 6 0 11 -4 11 -10z m-79 -23 c-1 -12 -15 -9 -19 4 -3 6 1 10 8 8
6 -3 11 -8 11 -12z m140 -78 c11 0 11 -2 1 -6 -13 -5 -104 72 -95 81 3 3 23
-12 43 -34 21 -22 44 -40 51 -41z m-120 29 c16 2 29 -1 29 -6 0 -6 -9 -8 -20
-5 -11 3 -20 0 -20 -6 0 -6 6 -11 13 -11 8 0 7 -3 -3 -10 -10 -6 -17 -4 -24 8
-5 9 -12 19 -15 22 -3 3 -13 14 -21 25 -15 20 -15 20 9 0 14 -12 34 -18 52
-17z m-1707 -29 c-3 -5 4 -9 14 -9 24 0 40 -59 20 -71 -10 -6 -10 -16 1 -44 7
-20 10 -39 7 -42 -3 -3 -8 6 -12 21 -3 14 -10 26 -14 26 -5 0 -13 12 -18 28
-9 22 -11 23 -11 6 -1 -11 2 -24 6 -28 4 -3 12 -22 19 -41 11 -34 11 -35 -13
-35 -22 0 -24 -2 -13 -15 7 -8 9 -15 5 -15 -4 0 -2 -7 5 -15 11 -13 10 -14 -4
-9 -9 3 -19 18 -22 33 -3 14 -12 42 -20 61 -12 28 -14 29 -9 8 5 -25 2 -28
-20 -28 -23 0 -25 -3 -20 -22 5 -19 2 -17 -14 7 -21 29 -21 30 -27 8 -5 -18
-14 -23 -39 -23 -19 0 -40 -2 -48 -5 -10 -5 -13 1 -9 25 2 16 8 30 12 30 4 0
22 27 40 61 17 33 39 63 48 66 10 4 20 12 24 18 4 6 32 11 62 12 31 0 53 -4
50 -8z m1596 1 c0 -5 19 -10 42 -10 23 0 38 -3 34 -7 -12 -12 -70 -10 -83 4
-16 14 -17 23 -3 23 6 0 10 -4 10 -10z m175 -8 c-3 -3 -11 0 -18 7 -9 10 -8
11 6 5 10 -3 15 -9 12 -12z m-1693 -37 c3 -14 1 -25 -3 -25 -5 0 -9 4 -9 9 0
5 -3 16 -6 25 -3 9 -2 16 4 16 5 0 12 -11 14 -25z m1672 10 c3 -9 0 -15 -8
-15 -7 0 -19 7 -26 15 -10 12 -9 15 8 15 11 0 22 -7 26 -15z m-31 -30 c20 -19
42 -35 47 -35 6 0 10 -4 10 -10 0 -18 -28 -11 -47 13 -10 12 -27 27 -38 33
-20 11 -32 34 -18 34 5 0 26 -16 46 -35z m-83 4 c0 -5 -4 -9 -8 -9 -5 0 -9 7
-9 15 0 8 4 12 9 9 4 -3 8 -9 8 -15z m195 0 c11 -16 1 -19 -13 -3 -7 8 -8 14
-3 14 5 0 13 -5 16 -11z m-38 -26 c-8 -7 -37 9 -31 19 3 5 12 4 20 -3 8 -6 13
-14 11 -16z m-122 8 c3 -5 1 -12 -4 -15 -5 -3 -11 1 -15 9 -6 16 9 21 19 6z
m-45 -17 c0 -9 5 -12 12 -8 7 4 8 3 4 -5 -4 -7 -13 -10 -19 -8 -13 4 -19 37
-6 37 5 0 9 -7 9 -16z m-1560 2 c0 -3 -4 -8 -10 -11 -5 -3 -10 -1 -10 4 0 6 5
11 10 11 6 0 10 -2 10 -4z m1516 -5 c-9 -14 18 -42 42 -44 12 -1 21 -6 18 -12
-2 -7 7 -20 20 -30 13 -10 24 -23 24 -29 0 -7 -3 -8 -8 -1 -4 6 -23 22 -42 35
-67 46 -98 90 -64 90 8 0 13 -4 10 -9z m134 -34 c0 -4 -6 -2 -14 5 -8 7 -12
17 -9 22 5 8 23 -12 23 -27z m-32 -15 c2 -7 -3 -12 -12 -12 -9 0 -16 7 -16 16
0 17 22 14 28 -4z m-118 -2 c0 -5 -5 -10 -11 -10 -5 0 -7 5 -4 10 3 6 8 10 11
10 2 0 4 -4 4 -10z m190 -10 c8 -5 11 -10 5 -10 -5 0 -17 5 -25 10 -8 5 -10
10 -5 10 6 0 17 -5 25 -10z m-220 -21 c0 -6 -4 -7 -10 -4 -5 3 -10 11 -10 16
0 6 5 7 10 4 6 -3 10 -11 10 -16z m-44 -4 c9 -8 13 -15 11 -15 -3 0 9 -15 26
-32 16 -18 34 -32 38 -31 5 2 5 -5 2 -14 -4 -11 -3 -14 5 -9 7 4 12 2 12 -3 0
-14 -6 -14 -31 0 -18 9 -19 7 -13 -15 8 -35 0 -33 -27 6 -18 25 -19 30 -6 25
32 -12 28 14 -7 49 -33 33 -45 54 -30 54 3 0 12 -7 20 -15z m142 -22 c7 -7 19
-13 25 -13 7 0 6 -4 -3 -10 -9 -5 -19 -5 -27 1 -7 6 -18 7 -24 3 -8 -5 -10 -2
-6 9 3 9 0 18 -9 21 -8 3 -14 10 -14 16 0 11 33 -5 58 -27z m92 17 c13 -11 18
-20 12 -20 -10 0 -42 27 -42 36 0 8 7 4 30 -16z m60 10 c0 -5 -5 -10 -11 -10
-5 0 -7 5 -4 10 3 6 8 10 11 10 2 0 4 -4 4 -10z m-1836 -25 c3 -9 0 -15 -9
-15 -8 0 -15 7 -15 15 0 8 4 15 9 15 5 0 11 -7 15 -15z m1851 -4 c-3 -6 -11
-11 -16 -11 -5 0 -4 6 3 14 14 16 24 13 13 -3z m-235 -11 c8 -11 22 -20 32
-20 9 0 20 -9 23 -20 3 -11 13 -20 21 -20 8 0 14 -8 14 -17 0 -12 -8 -8 -28
15 -16 18 -33 32 -39 32 -5 0 -20 11 -33 25 -13 14 -19 25 -14 25 5 0 16 -9
24 -20z m-1525 -8 c-3 -3 -11 0 -18 7 -9 10 -8 11 6 5 10 -3 15 -9 12 -12z
m1688 -16 c4 -10 1 -13 -8 -9 -8 3 -12 9 -9 14 7 12 11 11 17 -5z m-288 -6 c3
-5 1 -10 -4 -10 -6 0 -11 5 -11 10 0 6 2 10 4 10 3 0 8 -4 11 -10z m385 -30
c0 -5 -2 -10 -4 -10 -3 0 -8 5 -11 10 -3 6 -1 10 4 10 6 0 11 -4 11 -10z
m-405 -39 c-5 -17 33 -77 57 -92 7 -5 9 -11 5 -15 -4 -4 -16 4 -28 17 -11 13
-37 42 -57 63 -30 33 -33 38 -14 34 12 -4 25 -2 28 3 3 5 0 9 -5 9 -6 0 -11 5
-11 11 0 8 5 7 15 -1 9 -7 13 -20 10 -29z m95 -17 c0 -14 -3 -14 -15 -4 -8 7
-15 14 -15 16 0 2 7 4 15 4 8 0 15 -7 15 -16z m-20 -40 c13 -34 13 -38 -3 -22
-18 18 -28 48 -16 48 5 0 14 -12 19 -26z m-106 -66 c-6 -10 -44 29 -44 45 0 6
11 0 25 -13 13 -12 22 -27 19 -32z m-884 12 c0 -5 -2 -10 -4 -10 -3 0 -8 5
-11 10 -3 6 -1 10 4 10 6 0 11 -4 11 -10z m785 -20 c3 -5 2 -10 -4 -10 -5 0
-13 5 -16 10 -3 6 -2 10 4 10 5 0 13 -4 16 -10z m-1542 -57 c12 -10 17 -12 12
-4 -5 10 -4 12 6 7 8 -3 22 -9 31 -12 9 -3 24 -27 32 -53 l16 -46 -20 25 c-11
14 -20 29 -20 34 0 5 -3 7 -6 4 -3 -3 2 -22 10 -42 13 -32 13 -36 0 -36 -8 0
-14 6 -12 13 2 14 -31 81 -38 74 -3 -2 0 -16 6 -31 16 -42 12 -51 -10 -26 -11
13 -20 17 -20 10 0 -10 -3 -10 -15 0 -13 11 -15 8 -11 -24 3 -22 1 -34 -4 -31
-6 4 -10 17 -10 31 0 19 -5 24 -25 24 -31 0 -34 -29 -5 -37 22 -6 26 -18 9
-29 -6 -3 -15 -1 -19 6 -4 7 -13 9 -19 6 -18 -11 -13 -26 9 -26 14 0 20 -6 19
-22 0 -21 -1 -21 -8 -4 -4 11 -10 15 -13 10 -10 -16 -2 -58 12 -62 9 -3 11 1
7 12 -4 9 -3 16 2 16 5 0 11 -11 13 -24 4 -20 1 -24 -16 -23 -12 0 -24 6 -28
12 -5 6 -8 3 -8 -7 0 -10 9 -22 20 -28 11 -6 20 -16 20 -22 0 -7 -5 -6 -15 2
-12 10 -15 10 -15 -1 -1 -8 -7 -3 -15 11 -13 23 -14 23 -16 5 -1 -11 -1 -24 0
-29 1 -5 -5 -6 -14 -2 -9 3 -13 2 -10 -3 3 -5 -5 -11 -17 -14 -13 -2 -4 -4 20
-3 23 0 42 5 42 10 0 5 2 7 5 4 11 -11 -8 -39 -22 -33 -9 3 -23 -4 -34 -16
-14 -17 -16 -26 -8 -41 6 -11 8 -22 5 -26 -3 -3 -6 0 -6 6 0 7 -4 12 -10 12
-5 0 -10 -7 -10 -16 0 -8 -4 -12 -10 -9 -5 3 -10 -1 -10 -10 0 -9 -4 -13 -10
-10 -5 3 -10 1 -10 -4 0 -6 4 -11 9 -11 18 0 21 -32 4 -48 -16 -16 -16 -16
-10 1 4 11 2 17 -8 17 -11 0 -14 -10 -12 -40 3 -37 -2 -45 -25 -41 -13 2 -9
-17 5 -22 9 -3 8 -8 -3 -22 -13 -17 -13 -18 0 -13 10 4 16 0 17 -11 1 -9 6
-29 12 -44 9 -22 15 -27 31 -22 11 4 20 2 20 -4 0 -6 -7 -11 -15 -11 -8 0 -15
-5 -15 -11 0 -6 7 -8 16 -5 8 3 12 2 9 -4 -3 -6 1 -13 9 -16 9 -3 13 -10 10
-16 -3 -5 -14 -2 -25 8 -10 9 -19 12 -19 7 0 -6 6 -16 14 -22 19 -16 27 -51
12 -51 -7 0 -19 18 -26 40 -7 21 -16 37 -21 35 -4 -3 3 -32 17 -65 13 -33 24
-63 24 -67 0 -13 -38 33 -44 55 -4 12 -11 22 -16 22 -5 0 -2 -16 6 -36 19 -44
13 -54 -11 -18 -10 16 -20 22 -24 16 -8 -13 -135 17 -154 37 -9 10 -9 12 2 9
9 -2 18 9 24 27 5 17 16 42 23 56 7 14 11 29 8 32 -4 3 1 13 10 22 9 9 16 25
16 34 0 10 7 24 15 31 7 6 17 32 21 56 3 24 10 44 14 44 4 0 10 10 13 23 14
64 87 228 98 221 4 -2 5 5 2 17 -4 12 3 32 16 50 17 23 20 33 11 43 -8 10 -7
15 5 20 8 3 15 16 15 30 0 33 48 124 69 129 37 10 76 6 94 -10z m1921 -52 c3
-5 -1 -12 -10 -15 -27 -11 -37 -7 -24 9 14 17 26 19 34 6z m13 -37 c-3 -3 -12
-4 -19 -1 -8 3 -5 6 6 6 11 1 17 -2 13 -5z m-2135 -26 c-7 -7 -12 -8 -12 -2 0
14 12 26 19 19 2 -3 -1 -11 -7 -17z m138 12 c0 -5 -4 -10 -10 -10 -5 0 -10 5
-10 10 0 6 5 10 10 10 6 0 10 -4 10 -10z m2065 0 c3 -5 2 -10 -4 -10 -5 0 -13
5 -16 10 -3 6 -2 10 4 10 5 0 13 -4 16 -10z m-2005 -21 c0 -6 -4 -7 -10 -4 -5
3 -10 11 -10 16 0 6 5 7 10 4 6 -3 10 -11 10 -16z m1965 1 c17 -19 17 -20 1
-20 -9 0 -14 5 -11 10 3 6 -1 10 -9 10 -9 0 -16 5 -16 10 0 16 15 12 35 -10z
m-345 -30 c0 -5 -5 -10 -11 -10 -5 0 -7 5 -4 10 3 6 8 10 11 10 2 0 4 -4 4
-10z m1660 0 c0 -12 -8 -12 -35 0 -18 8 -17 9 8 9 15 1 27 -3 27 -9z m-3331
-32 c-1 -31 -1 -31 -8 -8 -5 14 -6 28 -4 33 9 15 13 6 12 -25z m35 -13 c3 -8
1 -15 -4 -15 -6 0 -10 7 -10 15 0 8 2 15 4 15 2 0 6 -7 10 -15z m-15 -39 c9
-11 9 -16 -1 -22 -7 -4 -10 -4 -6 1 4 4 3 14 -3 22 -6 7 -9 13 -6 13 2 0 10
-6 16 -14z m695 -111 c5 -13 2 -14 -17 -4 -32 17 -33 19 -10 19 12 0 23 -7 27
-15z m-39 -15 c10 -11 15 -23 11 -27 -3 -4 -13 3 -22 15 -8 12 -20 20 -25 17
-5 -4 -9 -1 -9 4 0 18 26 12 45 -9z m-741 -49 c-6 -6 -24 19 -24 34 1 6 7 1
15 -9 8 -11 12 -22 9 -25z m746 -3 c0 -13 -24 -4 -42 16 -26 27 -22 30 12 9
17 -9 30 -21 30 -25z m-62 3 c3 -8 -1 -12 -9 -9 -7 2 -15 10 -17 17 -3 8 1 12
9 9 7 -2 15 -10 17 -17z m-723 -51 c-4 -17 -9 -29 -12 -26 -3 2 -2 19 2 36 4
17 9 29 12 26 3 -2 2 -19 -2 -36z m-25 -51 c0 -28 -15 -23 -16 6 -1 14 2 22 7
19 5 -3 9 -14 9 -25z m778 0 c-3 -8 -7 -3 -11 10 -4 17 -3 21 5 13 5 -5 8 -16
6 -23z m-728 -44 c0 -5 -5 -3 -10 5 -5 8 -10 20 -10 25 0 6 5 3 10 -5 5 -8 10
-19 10 -25z m31 18 c13 -16 12 -17 -3 -4 -10 7 -18 15 -18 17 0 8 8 3 21 -13z
m644 6 c11 -16 1 -19 -13 -3 -7 8 -8 14 -3 14 5 0 13 -5 16 -11z m-737 -42 c7
-18 12 -40 12 -48 0 -17 -24 27 -32 59 -9 34 7 26 20 -11z m-34 8 c3 -8 1 -15
-4 -15 -6 0 -10 7 -10 15 0 8 2 15 4 15 2 0 6 -7 10 -15z m66 -5 c0 -11 -2
-20 -4 -20 -2 0 -6 9 -9 20 -3 11 -1 20 4 20 5 0 9 -9 9 -20z m3405 10 c-3 -5
-1 -10 5 -10 6 0 8 -5 5 -10 -4 -6 -11 -8 -16 -5 -12 8 -11 35 2 35 5 0 7 -4
4 -10z m-3461 -45 c3 -8 1 -15 -4 -15 -6 0 -10 7 -10 15 0 8 2 15 4 15 2 0 6
-7 10 -15z m3455 -38 c12 -15 12 -17 -3 -11 -9 3 -16 13 -16 22 0 8 1 13 3 11
1 -2 9 -12 16 -22z m-3439 -32 c0 -17 -2 -17 -10 -5 -5 8 -10 24 -10 35 0 17
2 17 10 5 5 -8 10 -24 10 -35z m-30 1 c0 -8 3 -23 6 -33 5 -12 4 -15 -3 -8
-16 15 -26 55 -14 55 6 0 11 -6 11 -14z m830 -16 c0 -5 -2 -10 -4 -10 -3 0 -8
5 -11 10 -3 6 -1 10 4 10 6 0 11 -4 11 -10z m2834 -5 c-4 -8 -11 -15 -16 -15
-6 0 -5 6 2 15 7 8 14 15 16 15 2 0 1 -7 -2 -15z m-3605 -39 c-3 -3 -11 5 -18
17 -13 21 -12 21 5 5 10 -10 16 -20 13 -22z m656 -34 c-6 -7 -34 11 -29 19 3
5 11 3 19 -4 7 -6 12 -13 10 -15z m-60 -31 c3 -5 1 -12 -5 -16 -5 -3 -10 1
-10 9 0 18 6 21 15 7z m-610 -71 c3 -5 1 -10 -4 -10 -6 0 -11 5 -11 10 0 6 2
10 4 10 3 0 8 -4 11 -10z m1870 -20 c3 -5 -1 -10 -10 -10 -9 0 -13 5 -10 10 3
6 8 10 10 10 2 0 7 -4 10 -10z m-1235 -24 c0 -3 -4 -8 -10 -11 -5 -3 -10 -1
-10 4 0 6 5 11 10 11 6 0 10 -2 10 -4z m1274 -35 c-6 -6 -24 19 -24 34 1 6 7
1 15 -9 8 -11 12 -22 9 -25z m-1264 9 c0 -5 -5 -10 -11 -10 -5 0 -7 5 -4 10 3
6 8 10 11 10 2 0 4 -4 4 -10z m1220 -10 c0 -5 -5 -10 -11 -10 -5 0 -7 5 -4 10
3 6 8 10 11 10 2 0 4 -4 4 -10z m1608 -25 c-3 -3 -9 2 -12 12 -6 14 -5 15 5 6
7 -7 10 -15 7 -18z"/>
<path d="M4975 7039 c-6 -27 -1 -49 9 -38 10 11 17 69 8 69 -6 0 -13 -14 -17
-31z"/>
<path d="M5018 7053 c7 -3 16 -2 19 1 4 3 -2 6 -13 5 -11 0 -14 -3 -6 -6z"/>
<path d="M2797 6909 c7 -7 15 -10 18 -7 3 3 -2 9 -12 12 -14 6 -15 5 -6 -5z"/>
<path d="M5150 6871 c0 -5 9 -13 20 -16 11 -3 20 -11 20 -16 0 -5 6 -4 14 3
15 14 9 20 -31 32 -13 4 -23 3 -23 -3z"/>
<path d="M2860 6236 c0 -2 7 -7 16 -10 8 -3 12 -2 9 4 -6 10 -25 14 -25 6z"/>
<path d="M2980 4986 c0 -2 9 -6 20 -9 11 -3 18 -1 14 4 -5 9 -34 13 -34 5z"/>
<path d="M2550 4685 c0 -11 7 -15 23 -13 12 2 22 8 22 13 0 6 -10 11 -22 13
-16 2 -23 -2 -23 -13z"/>
<path d="M3250 4442 c0 -14 28 -23 36 -11 3 6 3 13 0 16 -3 4 -6 1 -6 -7 0
-10 -3 -10 -15 0 -9 7 -15 8 -15 2z"/>
<path d="M3007 2082 c3 -12 9 -25 14 -28 14 -8 11 10 -6 32 -13 18 -14 18 -8
-4z"/>
<path d="M2990 2043 c0 -4 5 -15 10 -23 8 -13 10 -13 10 2 0 9 -4 20 -10 23
-5 3 -10 3 -10 -2z"/>
<path d="M2980 1986 c0 -9 5 -16 10 -16 6 0 10 4 10 9 0 6 -4 13 -10 16 -5 3
-10 -1 -10 -9z"/>
<path d="M2700 1484 c0 -8 5 -12 10 -9 6 4 8 11 5 16 -9 14 -15 11 -15 -7z"/>
<path d="M2740 1451 c0 -5 5 -13 10 -16 6 -3 10 -2 10 4 0 5 -4 13 -10 16 -5
3 -10 2 -10 -4z"/>
<path d="M2700 1380 c0 -17 17 -47 23 -40 2 3 -2 16 -10 30 -7 14 -13 18 -13
10z"/>
<path d="M2460 950 c0 -11 4 -20 9 -20 5 0 7 9 4 20 -3 11 -7 20 -9 20 -2 0
-4 -9 -4 -20z"/>
<path d="M2320 820 c0 -5 5 -10 11 -10 5 0 7 5 4 10 -3 6 -8 10 -11 10 -2 0
-4 -4 -4 -10z"/>
<path d="M2141 344 c0 -11 3 -14 6 -6 3 7 2 16 -1 19 -3 4 -6 -2 -5 -13z"/>
<path d="M2171 325 c-1 -6 8 -18 19 -28 19 -16 20 -16 20 4 0 14 -5 19 -14 16
-8 -3 -17 -1 -20 6 -2 7 -5 7 -5 2z"/>
<path d="M4760 7370 c0 -5 5 -10 11 -10 5 0 7 5 4 10 -3 6 -8 10 -11 10 -2 0
-4 -4 -4 -10z"/>
<path d="M4658 7363 c7 -3 16 -2 19 1 4 3 -2 6 -13 5 -11 0 -14 -3 -6 -6z"/>
<path d="M2950 7339 c0 -5 5 -7 10 -4 6 3 10 8 10 11 0 2 -4 4 -10 4 -5 0 -10
-5 -10 -11z"/>
<path d="M4528 7343 c6 -2 9 -10 6 -15 -4 -7 -2 -8 5 -4 13 9 5 26 -12 25 -9
0 -8 -2 1 -6z"/>
<path d="M3730 7331 c0 -6 4 -13 10 -16 6 -3 7 1 4 9 -7 18 -14 21 -14 7z"/>
<path d="M3976 7325 c4 -8 12 -15 20 -15 20 0 17 7 -6 20 -16 9 -18 8 -14 -5z"/>
<path d="M4650 7333 c0 -5 11 -9 25 -9 14 -1 25 2 25 7 0 5 -11 9 -25 9 -14 0
-25 -3 -25 -7z"/>
<path d="M4720 7328 c0 -9 -6 -18 -12 -20 -7 -3 -3 -7 8 -10 15 -4 20 -1 19
13 -2 23 -15 38 -15 17z"/>
<path d="M3480 7305 c7 -9 15 -13 17 -11 7 7 -7 26 -19 26 -6 0 -6 -6 2 -15z"/>
<path d="M3763 7280 c0 -25 2 -35 4 -22 2 12 2 32 0 45 -2 12 -4 2 -4 -23z"/>
<path d="M3078 7297 c-16 -6 -28 -14 -28 -19 0 -4 11 -3 25 2 14 5 33 7 42 4
15 -5 15 -4 3 4 -11 8 -3 12 30 15 l45 4 -45 0 c-25 1 -57 -4 -72 -10z"/>
<path d="M3710 7303 c0 -5 9 -14 20 -21 11 -7 20 -8 20 -2 0 5 -9 14 -20 20
-11 6 -20 7 -20 3z"/>
<path d="M3691 7274 c0 -11 3 -14 6 -6 3 7 2 16 -1 19 -3 4 -6 -2 -5 -13z"/>
<path d="M3170 7270 c0 -5 5 -10 10 -10 6 0 10 5 10 10 0 6 -4 10 -10 10 -5 0
-10 -4 -10 -10z"/>
<path d="M3370 7272 c0 -5 10 -17 21 -28 22 -19 22 -19 10 3 -12 24 -31 39
-31 25z"/>
<path d="M4810 7276 c0 -2 7 -9 15 -16 13 -11 14 -10 9 4 -5 14 -24 23 -24 12z"/>
<path d="M2486 7228 c-8 -32 -7 -71 2 -86 5 -7 9 13 10 48 2 63 -2 75 -12 38z"/>
<path d="M4648 7243 c7 -3 16 -2 19 1 4 3 -2 6 -13 5 -11 0 -14 -3 -6 -6z"/>
<path d="M3200 7228 c0 -9 7 -19 16 -22 15 -6 15 -4 3 11 -7 10 -15 20 -16 22
-2 2 -3 -3 -3 -11z"/>
<path d="M3362 7208 c3 -7 17 -14 32 -16 18 -2 26 0 22 7 -4 5 -13 8 -21 4 -8
-3 -15 0 -15 6 0 6 -5 11 -11 11 -6 0 -9 -6 -7 -12z"/>
<path d="M3505 7210 c-3 -5 -1 -10 4 -10 6 0 11 5 11 10 0 6 -2 10 -4 10 -3 0
-8 -4 -11 -10z"/>
<path d="M3240 7169 c0 -5 5 -7 10 -4 6 3 10 8 10 11 0 2 -4 4 -10 4 -5 0 -10
-5 -10 -11z"/>
<path d="M3335 7170 c3 -5 8 -10 11 -10 2 0 4 5 4 10 0 6 -5 10 -11 10 -5 0
-7 -4 -4 -10z"/>
<path d="M2817 7143 c-10 -9 -9 -23 1 -23 5 0 9 7 9 15 0 17 -1 18 -10 8z"/>
<path d="M3315 7133 c11 -3 24 -9 30 -14 5 -5 14 -9 20 -9 5 0 1 7 -9 15 -11
8 -29 14 -40 14 -20 -1 -21 -1 -1 -6z"/>
<path d="M2501 7104 c0 -11 3 -14 6 -6 3 7 2 16 -1 19 -3 4 -6 -2 -5 -13z"/>
<path d="M2575 7110 c-3 -6 1 -7 9 -4 18 7 21 14 7 14 -6 0 -13 -4 -16 -10z"/>
<path d="M3345 7090 c-3 -6 1 -7 9 -4 18 7 21 14 7 14 -6 0 -13 -4 -16 -10z"/>
<path d="M2650 7070 c-23 -7 -23 -8 -3 -9 12 -1 25 4 28 9 3 6 5 10 3 9 -2 -1
-14 -5 -28 -9z"/>
<path d="M5270 6981 c0 -5 5 -13 10 -16 6 -3 10 -2 10 4 0 5 -4 13 -10 16 -5
3 -10 2 -10 -4z"/>
<path d="M5242 6941 c-11 -6 -9 -9 6 -13 15 -4 19 -2 15 8 -6 16 -4 16 -21 5z"/>
<path d="M5450 6781 c5 -11 15 -23 21 -27 6 -3 3 5 -6 20 -20 30 -30 35 -15 7z"/>
<path d="M2380 6670 c0 -5 7 -10 16 -10 8 0 13 -4 10 -8 -2 -4 4 -9 15 -9 13
-1 19 5 19 20 0 16 -3 18 -12 9 -7 -7 -17 -8 -30 -1 -12 6 -18 6 -18 -1z"/>
<path d="M2432 6590 c0 -14 2 -19 5 -12 2 6 2 18 0 25 -3 6 -5 1 -5 -13z"/>
<path d="M5465 6595 c4 -11 11 -33 16 -50 8 -27 8 -26 4 9 -2 22 -10 44 -16
50 -9 8 -10 6 -4 -9z"/>
<path d="M5400 6290 c0 -6 7 -10 15 -10 8 0 15 2 15 4 0 2 -7 6 -15 10 -8 3
-15 1 -15 -4z"/>
<path d="M5467 6219 c7 -7 15 -10 18 -7 3 3 -2 9 -12 12 -14 6 -15 5 -6 -5z"/>
<path d="M5530 6115 c0 -7 30 -13 34 -7 3 4 -4 9 -15 9 -10 1 -19 0 -19 -2z"/>
<path d="M5510 6086 c0 -2 8 -10 18 -17 15 -13 16 -12 3 4 -13 16 -21 21 -21
13z"/>
<path d="M5550 6056 c0 -2 8 -10 18 -17 15 -13 16 -12 3 4 -13 16 -21 21 -21
13z"/>
<path d="M5560 5996 c0 -2 8 -10 18 -17 15 -13 16 -12 3 4 -13 16 -21 21 -21
13z"/>
<path d="M5637 5959 c12 -12 25 -20 28 -17 3 3 -7 13 -22 23 l-28 17 22 -23z"/>
<path d="M2011 5924 c-15 -15 -18 -24 -9 -24 12 0 43 38 36 45 -2 2 -14 -7
-27 -21z"/>
<path d="M1972 5878 c-7 -7 -12 -21 -11 -32 0 -19 1 -19 10 2 5 13 13 21 17
18 5 -3 9 1 9 9 0 18 -9 19 -25 3z"/>
<path d="M5701 5864 c0 -11 3 -14 6 -6 3 7 2 16 -1 19 -3 4 -6 -2 -5 -13z"/>
<path d="M2035 5860 c-3 -5 -1 -10 4 -10 6 0 11 5 11 10 0 6 -2 10 -4 10 -3 0
-8 -4 -11 -10z"/>
<path d="M2066 5853 c-6 -14 -5 -15 5 -6 7 7 10 15 7 18 -3 3 -9 -2 -12 -12z"/>
<path d="M2035 5820 c-3 -5 -2 -10 4 -10 5 0 13 5 16 10 3 6 2 10 -4 10 -5 0
-13 -4 -16 -10z"/>
<path d="M1946 5803 c-6 -14 -5 -15 5 -6 7 7 10 15 7 18 -3 3 -9 -2 -12 -12z"/>
<path d="M1990 5779 c0 -5 5 -7 10 -4 6 3 10 8 10 11 0 2 -4 4 -10 4 -5 0 -10
-5 -10 -11z"/>
<path d="M2110 5770 c0 -5 5 -10 11 -10 5 0 7 5 4 10 -3 6 -8 10 -11 10 -2 0
-4 -4 -4 -10z"/>
<path d="M5650 5646 c0 -8 5 -18 10 -21 6 -3 10 1 10 9 0 8 -4 18 -10 21 -5 3
-10 -1 -10 -9z"/>
<path d="M5751 5604 c0 -11 3 -14 6 -6 3 7 2 16 -1 19 -3 4 -6 -2 -5 -13z"/>
<path d="M5627 5583 c-7 -37 -5 -37 15 -2 13 22 14 29 4 29 -8 0 -16 -12 -19
-27z"/>
<path d="M2340 5580 c0 -5 7 -10 16 -10 8 0 12 5 9 10 -3 6 -10 10 -16 10 -5
0 -9 -4 -9 -10z"/>
<path d="M2386 5566 c5 -13 2 -15 -12 -9 -17 6 -18 5 -4 -13 22 -28 31 -33 48
-26 10 3 13 1 8 -6 -4 -7 -2 -12 3 -12 25 0 6 39 -32 69 -15 12 -17 12 -11 -3z"/>
<path d="M2568 5558 c-15 -15 -16 -18 -3 -18 9 0 18 7 22 15 8 23 0 24 -19 3z"/>
<path d="M2290 5560 c0 -5 5 -10 10 -10 6 0 10 5 10 10 0 6 -4 10 -10 10 -5 0
-10 -4 -10 -10z"/>
<path d="M2317 5542 c-8 -9 -24 -35 -36 -57 -27 -51 -44 -79 -53 -85 -3 -3 -6
-22 -5 -42 1 -32 3 -35 16 -25 12 10 14 9 8 -6 -4 -10 -7 -21 -7 -23 0 -3 -5
-2 -11 2 -7 4 -9 0 -5 -12 3 -11 10 -38 15 -62 5 -24 16 -51 25 -61 9 -10 13
-26 10 -41 -5 -20 -4 -22 5 -10 9 12 11 8 9 -20 -2 -19 -7 -34 -13 -33 -5 1
-10 -12 -10 -28 0 -26 1 -27 13 -12 11 15 12 14 12 -9 0 -21 5 -26 20 -25 21
1 24 12 21 65 -2 18 7 53 18 77 12 25 21 49 21 55 0 5 18 46 40 91 22 45 38
84 37 86 -2 2 -15 -8 -29 -22 -29 -29 -92 -145 -78 -145 5 0 -1 -17 -13 -37
-20 -35 -22 -36 -25 -14 -2 13 1 28 7 34 6 6 11 24 11 39 0 16 7 40 16 53 17
26 7 34 -14 13 -7 -7 -12 -8 -12 -4 0 4 11 17 26 28 14 11 23 23 20 26 -3 3
-15 -3 -26 -13 -11 -10 -20 -13 -20 -7 0 6 4 13 9 17 5 3 12 19 16 35 4 17 16
37 28 46 l22 16 -22 -5 c-22 -5 -22 -4 4 29 20 27 23 38 14 47 -10 9 -15 8
-24 -8 -21 -36 -35 -79 -36 -112 -1 -30 -21 -59 -21 -31 0 8 -5 6 -11 -5 -5
-9 -8 -20 -6 -25 3 -4 -2 -14 -11 -21 -14 -13 -15 -12 -8 10 4 13 11 45 15 70
4 25 17 60 30 77 13 18 20 40 17 48 -4 12 -2 15 9 11 21 -9 29 10 12 28 -13
12 -17 12 -30 -3z m-47 -144 c0 -5 -4 -8 -10 -8 -5 0 -10 10 -10 23 0 18 2 19
10 7 5 -8 10 -18 10 -22z m10 -148 c-14 -34 -30 -31 -30 5 0 18 4 23 15 19 10
-4 15 0 16 12 0 12 3 14 6 6 3 -7 0 -26 -7 -42z m21 -44 c-5 -11 -13 -22 -19
-24 -15 -5 -15 23 -1 50 14 26 31 5 20 -26z m23 -188 c-11 -17 -24 -6 -24 19
0 26 1 26 14 8 8 -11 12 -23 10 -27z"/>
<path d="M2400 5470 c-9 -6 -10 -10 -3 -10 6 0 15 5 18 10 8 12 4 12 -15 0z"/>
<path d="M2750 5475 c0 -31 104 -145 132 -145 7 0 -1 9 -18 20 -32 21 -94 92
-94 109 0 5 -4 13 -10 16 -5 3 -10 3 -10 0z"/>
<path d="M2560 5449 c0 -11 4 -18 10 -14 5 3 7 12 3 20 -7 21 -13 19 -13 -6z"/>
<path d="M2378 5396 c-20 -15 -23 -26 -8 -26 5 0 14 9 20 20 12 23 11 24 -12
6z"/>
<path d="M5582 5385 c0 -16 2 -22 5 -12 2 9 2 23 0 30 -3 6 -5 -1 -5 -18z"/>
<path d="M2471 5334 c-12 -15 -21 -33 -21 -41 0 -8 -7 -21 -15 -29 -8 -9 -15
-21 -15 -27 0 -7 3 -7 9 -1 11 10 70 124 66 124 -2 0 -13 -12 -24 -26z"/>
<path d="M2201 5284 c0 -11 3 -14 6 -6 3 7 2 16 -1 19 -3 4 -6 -2 -5 -13z"/>
<path d="M2401 5189 c-6 -18 -9 -34 -7 -36 2 -2 9 10 15 28 6 18 9 34 7 36 -2
2 -9 -10 -15 -28z"/>
<path d="M2233 5155 c-3 -9 -3 -18 -1 -21 3 -3 8 4 11 16 6 23 -1 27 -10 5z"/>
<path d="M2237 5100 c3 -11 7 -20 9 -20 2 0 4 9 4 20 0 11 -4 20 -9 20 -5 0
-7 -9 -4 -20z"/>
<path d="M3700 5060 c0 -11 5 -20 10 -20 6 0 10 9 10 20 0 11 -4 20 -10 20 -5
0 -10 -9 -10 -20z"/>
<path d="M2840 5030 c-11 -8 -7 -9 15 -4 37 8 45 14 19 14 -10 0 -26 -5 -34
-10z"/>
<path d="M2430 4475 c7 -9 15 -13 17 -11 7 7 -7 26 -19 26 -6 0 -6 -6 2 -15z"/>
<path d="M2375 4370 c-8 -12 12 -189 27 -245 10 -38 11 -39 18 -15 11 39 22
203 15 222 -9 23 -52 50 -60 38z"/>
<path d="M2522 4135 c-8 -18 -9 -40 -1 -80 7 -37 7 -73 0 -109 -11 -59 -6 -92
15 -100 19 -7 27 10 14 35 -15 26 -8 143 10 186 24 56 -13 122 -38 68z"/>
<path d="M3370 4054 c0 -8 5 -12 10 -9 6 3 10 10 10 16 0 5 -4 9 -10 9 -5 0
-10 -7 -10 -16z"/>
<path d="M3532 3964 c-27 -19 -29 -64 -3 -88 16 -14 19 -15 24 -2 3 8 19 17
36 21 29 6 77 66 64 79 -13 12 -99 5 -121 -10z"/>
<path d="M2549 3809 c-10 -6 -7 -9 14 -9 29 0 35 5 14 13 -8 3 -20 1 -28 -4z"/>
<path d="M5930 2042 c0 -33 4 -51 10 -47 13 8 13 65 0 85 -7 11 -10 0 -10 -38z"/>
<path d="M0 1932 l0 -119 128 -6 c70 -4 298 -7 507 -7 209 -1 484 -3 610 -5
127 -2 364 -5 527 -7 l297 -3 41 40 c23 22 64 74 91 115 l49 75 -223 7 c-122
3 -499 9 -837 12 -338 4 -744 9 -902 12 l-288 5 0 -119z"/>
<path d="M2240 1970 c-6 -11 -8 -20 -6 -20 3 0 10 9 16 20 6 11 8 20 6 20 -3
0 -10 -9 -16 -20z"/>
<path d="M4560 1855 c13 -14 26 -23 28 -20 7 7 -29 45 -41 45 -6 0 0 -11 13
-25z"/>
<path d="M5851 1763 c-1 -6 -8 -18 -16 -27 -9 -8 -11 -17 -6 -21 12 -7 34 32
27 48 -3 9 -5 9 -5 0z"/>
<path d="M7478 1645 c3 -20 10 -25 36 -25 23 0 27 3 16 9 -8 6 -18 7 -22 5 -4
-3 -8 0 -8 5 0 6 11 11 25 11 14 0 25 5 25 10 0 6 -17 10 -39 10 -35 0 -38 -2
-33 -25z"/>
<path d="M7631 1661 c-14 -4 -27 -13 -29 -20 -4 -11 1 -12 19 -6 13 4 39 9 56
12 18 3 30 9 27 14 -6 10 -37 10 -73 0z"/>
<path d="M7838 1657 c8 -9 11 -21 7 -27 -8 -14 45 -2 60 13 7 7 6 8 -2 3 -6
-3 -13 -2 -15 3 -1 5 -16 13 -33 17 -27 7 -29 6 -17 -9z"/>
<path d="M1930 1603 c0 -20 17 -24 34 -7 22 21 20 24 -9 22 -14 -1 -25 -8 -25
-15z"/>
<path d="M1334 1593 c-22 -22 -2 -29 26 -10 17 12 18 16 6 20 -9 4 -23 -1 -32
-10z"/>
<path d="M1811 1603 c-23 -5 -23 -5 8 -24 25 -15 36 -17 52 -9 17 10 18 13 5
25 -15 15 -22 16 -65 8z"/>
<path d="M1708 1563 c6 -2 18 -2 25 0 6 3 1 5 -13 5 -14 0 -19 -2 -12 -5z"/>
<path d="M5666 1523 c2 -25 19 -43 39 -43 6 1 2 7 -7 14 -10 7 -18 20 -18 29
0 9 -4 18 -9 21 -4 3 -7 -6 -5 -21z"/>
<path d="M7620 1451 c0 -43 60 -95 72 -61 2 6 28 11 58 11 30 1 64 6 75 10 13
6 -14 8 -75 7 l-95 -3 -5 29 c-7 41 -30 46 -30 7z"/>
<path d="M7694 1247 c-12 -32 14 -40 109 -31 75 8 66 16 -19 19 -43 1 -69 7
-75 16 -6 11 -9 10 -15 -4z"/>
<path d="M5513 1178 c-18 -24 -24 -38 -16 -38 4 0 13 11 20 25 12 27 11 32 -4
13z"/>
<path d="M7766 1055 c4 -8 7 -15 9 -15 2 0 5 7 9 15 3 9 0 15 -9 15 -9 0 -12
-6 -9 -15z"/>
<path d="M6222 942 c3 -10 0 -23 -6 -29 -20 -20 -44 -51 -54 -70 -10 -19 -6
-43 7 -43 16 0 52 43 47 56 -3 8 0 14 7 14 7 0 26 11 42 25 23 19 26 24 13 25
-11 0 -18 8 -18 20 0 14 -7 20 -21 20 -16 0 -20 -5 -17 -18z"/>
<path d="M5336 935 c-3 -8 -1 -15 3 -15 5 0 11 7 15 15 3 8 1 15 -3 15 -5 0
-11 -7 -15 -15z"/>
<path d="M7607 878 c-3 -8 3 -22 14 -32 34 -29 40 -16 10 23 -14 18 -19 20
-24 9z"/>
<path d="M7776 853 c-4 -10 -2 -14 8 -10 8 3 16 1 19 -6 2 -7 6 -7 10 -1 3 5
-3 15 -13 22 -15 9 -19 8 -24 -5z"/>
<path d="M5925 850 c-3 -6 1 -7 9 -4 18 7 21 14 7 14 -6 0 -13 -4 -16 -10z"/>
<path d="M463 805 c0 -27 2 -38 4 -22 2 15 2 37 0 50 -2 12 -4 0 -4 -28z"/>
<path d="M4201 807 c2 -2 17 -11 32 -21 28 -17 28 -17 17 3 -6 12 -20 21 -32
21 -12 0 -19 -1 -17 -3z"/>
<path d="M7848 785 c-10 -13 -18 -32 -18 -42 1 -16 3 -16 19 4 13 16 21 19 29
11 19 -19 26 0 12 27 -16 31 -20 31 -42 0z"/>
<path d="M6180 787 c-66 -31 -101 -78 -99 -132 1 -16 3 -23 6 -14 3 11 11 15
24 12 15 -4 19 -13 17 -37 -2 -34 7 -56 23 -56 6 0 7 5 4 10 -3 6 3 10 14 10
11 0 23 -4 26 -10 3 -5 -1 -10 -10 -10 -9 0 -13 -5 -10 -10 4 -6 9 -9 13 -6 4
2 16 0 27 -5 17 -7 16 -8 -8 -8 -15 -1 -44 6 -65 14 l-37 15 28 -25 c15 -13
46 -29 69 -36 40 -10 59 -9 123 7 24 6 27 4 22 -9 -4 -11 1 -20 13 -27 16 -8
20 -8 20 4 0 8 16 32 35 53 51 55 56 86 27 158 -13 33 -31 68 -40 77 -32 33
-172 48 -222 25z m110 -67 c14 -10 21 -22 17 -26 -4 -4 -18 5 -31 19 -29 31
-22 35 14 7z m-91 7 c-2 -1 -13 -9 -24 -17 -19 -14 -19 -14 -6 3 7 9 18 17 24
17 6 0 8 -1 6 -3z m-65 -32 c-4 -8 -11 -15 -16 -15 -6 0 -5 6 2 15 7 8 14 15
16 15 2 0 1 -7 -2 -15z m88 -105 c31 -7 31 -8 6 -9 -15 -1 -37 9 -50 22 -13
12 -16 16 -6 8 9 -7 32 -17 50 -21z m63 10 c-3 -5 -11 -10 -16 -10 -6 0 -7 5
-4 10 3 6 11 10 16 10 6 0 7 -4 4 -10z m35 0 c0 -5 -4 -10 -10 -10 -5 0 -10 5
-10 10 0 6 5 10 10 10 6 0 10 -4 10 -10z m-35 -30 c3 -5 -3 -10 -14 -10 -12 0
-21 -5 -21 -11 0 -5 -4 -7 -10 -4 -15 10 -12 23 8 28 28 8 31 7 37 -3z"/>
<path d="M4130 785 c0 -5 9 -21 20 -35 11 -14 20 -20 20 -15 0 6 -9 21 -20 35
-11 14 -20 21 -20 15z"/>
<path d="M4192 771 c4 -13 18 -16 19 -4 0 4 -5 9 -11 12 -7 2 -11 -2 -8 -8z"/>
<path d="M7770 771 c0 -6 5 -13 10 -16 6 -3 10 1 10 9 0 9 -4 16 -10 16 -5 0
-10 -4 -10 -9z"/>
<path d="M5197 763 c-4 -3 -7 -11 -7 -17 0 -6 5 -5 12 2 6 6 9 14 7 17 -3 3
-9 2 -12 -2z"/>
<path d="M4225 737 c7 -16 45 -40 45 -28 0 5 -11 16 -25 25 -16 11 -23 12 -20
3z"/>
<path d="M469 734 c-1 -5 -1 -61 1 -125 l2 -117 -28 -5 c-16 -3 -60 -9 -99
-12 -82 -7 -106 -10 -242 -26 l-103 -12 0 -54 c0 -37 4 -55 14 -59 8 -3 52 2
98 10 47 9 99 14 117 12 17 -2 34 1 37 6 4 5 17 7 29 4 25 -6 45 9 23 17 -7 2
-10 8 -5 12 4 5 17 3 30 -4 30 -16 113 -11 110 7 -2 6 2 12 7 12 6 0 10 -10
11 -22 1 -21 1 -21 11 4 7 21 18 29 46 34 20 3 62 12 92 19 30 7 89 16 130 19
41 3 107 12 147 19 64 12 73 11 76 -2 3 -9 5 -1 6 17 0 18 7 46 15 61 l15 28
-50 -13 c-93 -24 -273 -53 -367 -59 -111 -7 -107 -11 -111 134 -1 53 -4 98 -7
100 -2 2 -5 0 -5 -5z"/>
<path d="M3901 706 c12 -14 25 -26 27 -26 9 0 -25 44 -37 48 -7 2 -3 -7 10
-22z"/>
<path d="M7860 706 c0 -10 -4 -14 -12 -10 -7 4 -8 3 -4 -4 4 -7 12 -12 18 -12
6 0 20 -7 30 -17 17 -15 18 -14 18 22 0 30 -3 35 -13 26 -10 -8 -17 -7 -25 1
-9 9 -12 8 -12 -6z"/>
<path d="M3960 704 c0 -6 7 -19 15 -30 8 -10 14 -14 14 -9 0 6 -6 19 -14 29
-8 11 -15 15 -15 10z"/>
<path d="M4005 700 c3 -5 8 -10 11 -10 2 0 4 5 4 10 0 6 -5 10 -11 10 -5 0 -7
-4 -4 -10z"/>
<path d="M3810 688 c0 -9 5 -20 11 -23 17 -11 18 -2 3 19 -12 17 -14 17 -14 4z"/>
<path d="M3850 690 c20 -13 40 -13 40 0 0 6 -12 10 -27 10 -22 0 -25 -2 -13
-10z"/>
<path d="M3760 675 c0 -8 7 -15 16 -15 14 0 14 3 4 15 -7 8 -14 15 -16 15 -2
0 -4 -7 -4 -15z"/>
<path d="M3790 641 c0 -5 7 -14 15 -21 12 -10 15 -10 15 3 0 8 -7 17 -15 21
-8 3 -15 2 -15 -3z"/>
<path d="M5730 640 c0 -5 5 -10 11 -10 5 0 7 5 4 10 -3 6 -8 10 -11 10 -2 0
-4 -4 -4 -10z"/>
<path d="M3750 631 c0 -6 4 -13 10 -16 6 -3 7 1 4 9 -7 18 -14 21 -14 7z"/>
<path d="M3720 600 c0 -5 5 -10 11 -10 5 0 7 5 4 10 -3 6 -8 10 -11 10 -2 0
-4 -4 -4 -10z"/>
<path d="M1172 589 c10 -5 15 -16 12 -24 -4 -8 -1 -15 5 -15 12 0 14 11 5 34
-3 9 -14 16 -23 16 -14 -1 -14 -2 1 -11z"/>
<path d="M4996 513 c-6 -14 -5 -15 5 -6 7 7 10 15 7 18 -3 3 -9 -2 -12 -12z"/>
<path d="M1149 447 c-8 -18 -25 -36 -37 -42 -27 -12 -31 -22 -25 -62 4 -27 10
-32 50 -43 40 -9 48 -9 65 7 20 18 20 17 1 -17 -10 -19 -19 -36 -20 -38 -1 -2
-14 4 -29 14 -27 18 -27 18 -15 -4 13 -25 29 -27 65 -11 14 7 22 17 19 25 -3
9 0 12 9 9 15 -6 38 32 38 64 0 23 -37 71 -55 71 -8 0 -16 9 -20 19 -12 38
-29 41 -46 8z m72 -89 c13 -20 1 -23 -20 -4 -11 10 -25 15 -31 11 -6 -4 -18
-4 -28 0 -13 5 -14 8 -3 14 17 11 72 -4 82 -21z m-71 -38 c0 -5 -4 -10 -9 -10
-6 0 -13 5 -16 10 -3 6 1 10 9 10 9 0 16 -4 16 -10z"/>
<path d="M873 451 c-11 -7 -11 -190 0 -208 7 -12 -17 -43 -34 -43 -12 0 -12
-47 1 -55 17 -10 11 -60 -9 -82 -11 -12 -17 -24 -14 -27 4 -3 2 -6 -4 -6 -6 0
-13 -7 -17 -15 -5 -13 13 -15 119 -15 l125 0 1 48 1 47 13 -50 12 -50 2 65 c0
36 1 83 2 105 1 61 -19 164 -37 188 l-16 22 5 -22 c3 -13 2 -23 -2 -23 -9 0
-31 69 -31 99 0 34 -27 25 -34 -11 -3 -18 -6 -71 -7 -117 l-2 -85 -23 28 c-29
33 -29 76 -1 191 4 15 0 20 -18 21 -12 1 -27 -1 -32 -5z"/>
<path d="M6240 452 c0 -15 28 -23 36 -9 4 7 4 9 -1 5 -4 -4 -14 -3 -22 3 -8 7
-13 8 -13 1z"/>
<path d="M723 437 c-51 -8 -65 -19 -42 -33 7 -4 0 -16 -18 -33 -22 -20 -28
-32 -23 -46 4 -11 5 -24 2 -29 -3 -5 1 -14 9 -20 23 -18 19 -44 -8 -51 -19 -4
-24 -11 -21 -33 3 -35 -22 -102 -39 -102 -7 0 -12 -3 -11 -7 5 -16 -26 -52
-37 -43 -15 13 -39 -5 -32 -24 5 -12 20 -16 62 -16 30 0 55 4 55 9 0 5 11 13
24 18 13 4 42 25 64 45 31 28 40 43 37 63 -3 28 27 65 52 65 7 0 13 4 13 9 0
5 9 11 20 14 16 4 18 10 12 28 -5 13 -6 37 -2 54 4 17 5 56 2 87 -4 56 -5 56
-36 55 -17 -1 -55 -6 -83 -10z"/>
<path d="M612 413 c-10 -4 -10 -8 0 -21 10 -12 10 -14 1 -8 -9 5 -11 2 -7 -8
3 -9 8 -16 11 -16 7 0 42 44 43 53 0 8 -28 8 -48 0z"/>
<path d="M510 371 c0 -25 6 -27 13 -6 4 8 2 17 -3 20 -6 4 -10 -3 -10 -14z"/>
<path d="M445 340 c-3 -5 -1 -10 4 -10 6 0 11 -9 11 -20 0 -27 -16 -25 -36 5
-19 28 -57 33 -80 10 -9 -8 -24 -15 -35 -15 -10 0 -19 7 -19 15 0 20 -29 19
-36 0 -4 -10 -13 -13 -25 -10 -12 4 -21 1 -25 -9 -7 -19 -50 -21 -57 -3 -2 6
-8 9 -12 4 -5 -4 2 -18 14 -31 14 -15 19 -26 12 -31 -6 -3 -11 0 -11 8 0 16
-21 27 -50 27 -11 0 -23 7 -28 16 -7 12 -15 14 -33 8 -13 -4 -27 -7 -31 -6 -5
1 -8 -65 -8 -148 l0 -149 240 0 241 0 -5 42 c-3 23 -5 102 -5 175 -1 120 -8
152 -26 122z"/>
<path d="M616 262 c-2 -4 4 -9 15 -9 11 -1 17 2 14 8 -7 11 -22 12 -29 1z"/>
<path d="M502 163 c-1 -40 2 -73 7 -73 12 0 21 53 11 65 -5 6 -10 26 -13 45
-2 19 -5 2 -5 -37z"/>
<path d="M1145 210 c4 -6 11 -8 16 -5 14 9 11 15 -7 15 -8 0 -12 -5 -9 -10z"/>
<path d="M6012 95 c0 -16 2 -22 5 -12 2 9 2 23 0 30 -3 6 -5 -1 -5 -18z"/>
<path d="M5957 94 c-11 -11 -9 -44 3 -44 6 0 10 -5 10 -11 0 -5 -6 -7 -12 -3
-10 6 -10 4 0 -7 9 -10 15 -10 24 -1 9 9 8 19 -3 43 -8 16 -18 27 -22 23z"/>
<path d="M500 70 c0 -5 5 -10 10 -10 6 0 10 5 10 10 0 6 -4 10 -10 10 -5 0
-10 -4 -10 -10z"/>
<path d="M3870 50 c0 -5 5 -10 10 -10 6 0 10 5 10 10 0 6 -4 10 -10 10 -5 0
-10 -4 -10 -10z"/>
<path d="M3937 38 c-3 -11 -10 -17 -16 -13 -6 3 -11 -1 -11 -10 0 -14 3 -14
28 2 15 9 28 17 28 17 1 1 -4 6 -11 13 -10 9 -14 8 -18 -9z"/>
<path d="M5505 50 c-3 -5 -2 -10 4 -10 5 0 13 5 16 10 3 6 2 10 -4 10 -5 0
-13 -4 -16 -10z"/>
<path d="M4060 34 c0 -8 32 -33 43 -34 4 0 -2 9 -13 20 -21 21 -30 25 -30 14z"/>
<path d="M3690 26 c0 -2 8 -10 18 -17 15 -13 16 -12 3 4 -13 16 -21 21 -21 13z"/>
<path d="M3500 10 c0 -5 5 -10 10 -10 6 0 10 5 10 10 0 6 -4 10 -10 10 -5 0
-10 -4 -10 -10z"/>
</g>
</svg>
